<svg width="226" height="195" viewBox="0 0 226 195" fill="none" xmlns="http://www.w3.org/2000/svg">
<path d="M35.5 8.5C29.1 10.1 10.1667 19.5 1.5 24L16 30L21.5 41.5L40 32L28.5 16.5L35.5 8.5Z" fill="white"/>
<path d="M190.5 8.5C196.9 10.1 215.833 19.5 224.5 24L210 30L204.5 41.5L186 32L197.5 16.5L190.5 8.5Z" fill="white"/>
<path d="M61 166.5L72 173L65 183.5L69 189C59.5 184.5 56 183 49 178.5L58 174L61 166.5Z" fill="white"/>
<path d="M171 166.5L160 173L167 183.5L163 189C172.5 184.5 176 183 183 178.5L174 174L171 166.5Z" fill="white"/>
<path d="M115.278 173.689C109.549 157.796 92.1212 154.665 78.2511 151.405C66.8735 148.731 57.9865 142.114 54.0063 132.079C44.0038 110.036 63.134 93.5276 65.7892 73.4257C67.116 63.5203 61.3535 55.7521 55.9479 48.2092L65.1414 37.7218C80.4196 45.5228 101.845 43.531 115.278 33.1406C128.712 43.531 150.137 45.5367 165.417 37.7356L171.827 47.9061C166.422 55.449 163.441 63.5341 164.769 73.4379C167.423 93.5397 186.555 110.049 176.55 132.093C172.57 142.126 163.685 148.743 152.306 151.417C138.437 154.677 121.008 157.796 115.278 173.689Z" fill="#383B9B"/>
<path fill-rule="evenodd" clip-rule="evenodd" d="M115.278 173.689C109.549 157.796 92.1212 154.665 78.2511 151.405C66.8735 148.731 57.9865 142.114 54.0063 132.079C44.0038 110.036 63.134 93.5276 65.7892 73.4257C67.116 63.5202 61.3535 55.7521 55.9479 48.2091L65.1414 37.7217C80.4196 45.5228 101.845 43.5309 115.278 33.1405C128.712 43.5309 150.137 45.5366 165.417 37.7356L171.827 47.906C166.422 55.449 163.441 63.5341 164.769 73.4378C167.423 93.5397 186.555 110.049 176.55 132.093C172.57 142.126 163.685 148.743 152.306 151.417C138.437 154.677 121.008 157.796 115.278 173.689Z" stroke="#F6EE07" stroke-width="6" stroke-linecap="square"/>
<path d="M75.9579 119.943V78.7656L149.99 79.112V119.943L75.9579 119.943Z" fill="#F6EE07" stroke="#231F20" stroke-width="2"/>
<path d="M80.0906 64.4192L147.274 64.4192L153.168 79.112L73.6751 79.112L80.0906 64.4192Z" fill="#6C696A" stroke="#231F20" stroke-width="2"/>
<path d="M86.2739 89.8626H81.0726V82.0599H86.2739V89.8626Z" fill="#231F20"/>
<path d="M86.2739 99.2242H81.0726V91.4232H86.2739V99.2242Z" fill="#231F20"/>
<path d="M86.2739 108.847H81.0726V101.045H86.2739V108.847Z" fill="#231F20"/>
<path d="M98.0638 89.8626H92.8625V82.0599H98.0638V89.8626Z" fill="#231F20"/>
<path d="M98.0638 99.2242H92.8625V91.4232H98.0638V99.2242Z" fill="#231F20"/>
<path d="M98.0638 108.847H92.8625V101.045H98.0638V108.847Z" fill="#231F20"/>
<path d="M143.517 108.847H138.316V101.045H143.517V108.847Z" fill="#231F20"/>
<path d="M143.834 89.8626H138.635V82.0599H143.834V89.8626Z" fill="#231F20"/>
<path d="M143.834 99.2242H138.635V91.4232H143.834V99.2242Z" fill="#231F20"/>
<path d="M137.074 119.943H130.053V108.326H137.074V119.943Z" fill="#231F20"/>
<path d="M116.035 178.35C101.171 178.35 90.5987 176.826 74.2173 169.132L72.1839 172.151C69.5668 171.207 60.7889 165.535 60.7889 165.535L57.4322 173.807L48.0412 178.402C60.051 186.806 71.7214 190.798 71.7214 190.798C71.7526 190.798 66.9116 184.98 67.1333 185.072C82.9917 191.728 97.5494 195.002 116.035 195C134.521 194.998 149.079 191.728 164.936 185.072C165.157 184.98 160.318 190.798 160.347 190.798C160.347 190.798 172.019 186.806 184.029 178.402L174.637 173.807L171.28 165.535C171.28 165.535 162.504 171.207 159.885 172.151L157.853 169.132C141.472 176.826 130.898 178.35 116.035 178.35ZM50.0728 178.508L58.5719 174.41L61.4678 167.163C61.4678 167.163 69.4732 172.31 71.4443 173.097L64.362 183.602C64.362 183.602 68.4063 188.342 68.3647 188.33C64.8453 187.239 54.3596 181.823 50.0728 178.508ZM163.704 188.33C163.662 188.342 167.708 183.602 167.708 183.602L160.625 173.097C162.596 172.31 170.603 167.163 170.603 167.163L173.497 174.41L181.996 178.508C177.711 181.823 167.225 187.239 163.704 188.33Z" fill="#383B9B"/>
<path d="M112.963 24.2189C137.656 24.2189 155.221 26.4342 182.438 37.6265L185.815 33.2341C190.164 34.6093 204.744 42.8607 204.744 42.8607L210.32 30.8266L225.925 24.1427C205.972 11.9181 186.582 6.11059 186.582 6.11059C186.532 6.11059 194.572 14.5733 194.205 14.4382C167.861 4.75961 143.673 -0.00346005 112.963 1.8858e-06C82.2504 0.00173613 58.0644 4.75961 31.7203 14.4382C31.3514 14.5733 39.3932 6.11059 39.3429 6.11059C39.3429 6.11059 19.9529 11.9181 0 24.1427L15.6038 30.8266L21.1809 42.8607C21.1809 42.8607 35.7611 34.6093 40.1102 33.2341L43.4859 37.6265C70.703 26.4342 88.2692 24.2189 112.963 24.2189ZM222.548 23.9885L208.428 29.9484L203.619 40.4913C203.619 40.4913 190.317 33.0037 187.043 31.8589L198.809 16.5789C198.809 16.5789 192.09 9.68375 192.158 9.70277C198.007 11.2911 215.428 19.1666 222.548 23.9885ZM33.7658 9.70277C33.8351 9.68375 27.1148 16.5789 27.1148 16.5789L38.8822 31.8589C35.6087 33.0037 22.3067 40.4913 22.3067 40.4913L17.4969 29.9484L3.37572 23.9885C10.4961 19.1666 27.9168 11.2911 33.7658 9.70277Z" fill="#383B9B"/>
<path d="M105.47 133.537L108.326 156.199V157.301C108.326 157.301 108.955 158.636 110.056 158.636C111.158 158.636 112.415 158.479 112.573 158.085C112.731 157.694 112.495 154.076 112.573 151.008C112.651 147.941 112.888 145.66 113.437 143.458C113.988 141.255 114.696 138.976 114.539 137.403C114.381 135.831 114.561 131.817 114.561 131.817L105.47 131.268V133.537Z" fill="#6C696A" stroke="#231F20" stroke-width="2"/>
<path d="M123.819 132.055C123.819 132.055 123.821 136.773 125.865 140.155C127.908 143.536 130.304 147.846 130.898 150.222C131.449 152.423 131.449 154.627 131.449 154.627C131.449 154.627 135.174 154.389 135.789 153.918C136.404 153.445 131.606 131.268 131.606 131.268L123.819 132.055Z" fill="#6C696A" stroke="#231F20" stroke-width="2"/>
<path d="M107.836 157.467C107.836 157.467 105.013 160.727 104.746 161.56C104.391 162.667 104.064 163.162 103.906 164.076C103.771 164.865 104.58 167.052 106.388 166.344C108.196 165.635 109.568 164.942 110.434 163.763C111.298 162.582 111.849 162.582 111.849 162.582L113.891 161.066L113.044 157.261L111.849 157.864C111.849 157.864 110.628 158.577 109.649 158.409C108.671 158.243 107.602 157.077 107.602 157.077" fill="#231F20"/>
<path d="M130.886 154.841C130.886 154.841 130.354 157.143 130.747 157.929C131.14 158.716 131.061 159.029 132.871 158.951C134.679 158.873 135.702 158.267 136.802 158.963C137.904 159.66 139.237 160.593 140.027 160.604C142.93 160.638 144.098 159.093 144.098 159.093L144.432 158.427C144.432 158.427 142.464 156.986 141.993 156.906C141.522 156.828 137.982 155.413 138.848 155.884C139.127 156.036 137.549 155.361 137.19 154.626C136.96 154.154 136.345 153.918 136.345 153.918L130.886 154.841Z" fill="#231F20"/>
<path d="M113.548 49.7091L120.752 49.7108L123.819 54.5882V60.4477L122.089 65.7563L117.456 70.722L112.324 67.9976L110.015 63.5151L111.426 53.0831L112.623 49.7091H113.548Z" fill="white"/>
<path d="M47.2111 16.0823C48.0373 15.6354 48.8548 15.2959 49.6636 15.0638C50.4707 14.8335 51.2051 14.6949 51.8668 14.6481C52.5301 14.6031 53.0878 14.6291 53.5364 14.7243C53.9885 14.8179 54.2743 14.9564 54.3955 15.14C53.9694 15.4414 53.6352 15.6856 53.3909 15.8744C53.145 16.0597 52.9579 16.2174 52.8298 16.3455C52.7051 16.4702 52.6202 16.5759 52.5804 16.6573C52.5388 16.7404 52.5007 16.8253 52.4695 16.9067C52.3864 17.0366 52.3794 17.2029 52.4487 17.4055C52.4799 17.499 52.5215 17.5978 52.5734 17.7034C52.3794 17.2843 52.0711 16.9119 51.652 16.588C51.2363 16.2658 50.7669 16.0407 50.2456 15.916C49.7277 15.7878 49.1839 15.7826 48.6175 15.9021C48.0528 16.0234 47.5246 16.3022 47.0309 16.7404C46.6603 17.073 46.4507 17.4661 46.4005 17.9182C46.3537 18.3668 46.4784 18.7877 46.7746 19.1791C47.0742 19.5671 47.5454 19.891 48.1879 20.149C48.8288 20.4089 49.6602 20.5093 50.6821 20.4539C51.2484 20.4227 51.8841 20.3881 52.5873 20.35C53.2922 20.3101 53.9729 20.3119 54.6241 20.3569C55.2737 20.3985 55.8539 20.5145 56.3631 20.7033C56.8706 20.8938 57.2308 21.2073 57.4439 21.6455C57.5634 21.9555 57.605 22.2985 57.5686 22.6709C57.5357 23.045 57.404 23.4486 57.1737 23.8764C56.9468 24.3024 56.6177 24.7251 56.1899 25.1442C55.7604 25.5599 55.2078 25.9635 54.5341 26.3497C53.4983 26.9317 52.4851 27.3976 51.4926 27.7422C50.4985 28.0886 49.5961 28.2982 48.7838 28.3658C47.9697 28.4351 47.2838 28.3485 46.7261 28.1025C46.1684 27.8583 45.8012 27.4495 45.6245 26.8762C45.9623 26.7896 46.2879 26.6511 46.6014 26.4605C46.9149 26.2683 47.1972 26.0691 47.4466 25.8647C47.7359 25.6448 48.0165 25.4005 48.2849 25.1373C48.3715 25.5443 48.6521 25.9011 49.1232 26.2042C49.5978 26.509 50.1555 26.7152 50.7929 26.8208C51.4338 26.923 52.1127 26.8866 52.8298 26.71C53.5486 26.5316 54.2154 26.1488 54.8251 25.5668C55.2304 25.1702 55.4036 24.7337 55.3447 24.2574C55.2892 23.7828 55.0416 23.3533 54.6034 22.9688C54.1686 22.586 53.5676 22.3037 52.8021 22.1236C52.0348 21.9452 51.1358 21.9469 50.107 22.1305C49.6498 22.2136 49.0938 22.2673 48.4443 22.2898C47.7965 22.3141 47.1591 22.2673 46.5321 22.1513C45.9051 22.0318 45.3543 21.8256 44.8832 21.5347C44.4087 21.2402 44.1263 20.8193 44.038 20.2738C43.9843 20.0399 43.9722 19.768 44.0034 19.4632C44.0311 19.1601 44.1523 18.8292 44.3636 18.4724C44.5715 18.1139 44.9006 17.7346 45.3474 17.3362C45.796 16.9396 46.4161 16.5222 47.2111 16.0823Z" fill="white"/>
<path d="M68.2487 13.5289C67.9802 13.9134 67.7585 14.2616 67.5836 14.5751C67.4121 14.8851 67.2683 15.1588 67.154 15.3926C67.0328 15.6697 66.9375 15.9208 66.87 16.1408C66.7591 15.6853 66.5565 15.3008 66.2672 14.9907C65.9762 14.6773 65.6246 14.4469 65.2142 14.2979C64.8071 14.1473 64.3464 14.0918 63.8355 14.1317C63.3262 14.1698 62.8014 14.3153 62.2628 14.5681C61.9164 14.7309 61.6202 15.0011 61.376 15.3787C61.1352 15.758 60.9707 16.1945 60.8841 16.6881C60.7958 17.1783 60.7975 17.7031 60.891 18.2608C60.9863 18.8203 61.1924 19.371 61.5076 19.9097C61.7934 20.3912 62.1312 20.8415 62.5191 21.2607C62.9054 21.6816 63.3245 22.0262 63.7731 22.293C64.2252 22.5614 64.7084 22.7329 65.2211 22.8056C65.732 22.8749 66.2568 22.7987 66.7938 22.577C67.1021 22.4488 67.3411 22.293 67.5074 22.1128C67.6719 21.9292 67.7931 21.7249 67.8676 21.5032C67.9456 21.278 67.9819 21.0424 67.9785 20.7965C67.9785 20.5523 67.9629 20.3029 67.9369 20.0483C68.1482 20.0535 68.3803 20.0448 68.6297 20.0205C68.8358 20.0032 69.0748 19.9686 69.3433 19.9166C69.61 19.8664 69.901 19.7833 70.2162 19.6672C70.1366 20.2041 69.8924 20.7168 69.4819 21.2053C69.0696 21.6902 68.5587 22.118 67.9508 22.487C67.3445 22.8576 66.6725 23.1555 65.9347 23.3807C65.2003 23.6076 64.4711 23.7288 63.7523 23.7409C63.0353 23.7513 62.3632 23.6422 61.7362 23.4153C61.1127 23.1902 60.6087 22.7987 60.2259 22.2445C59.8813 21.756 59.5989 21.1741 59.3807 20.4986C59.1642 19.8248 59.0811 19.1303 59.1313 18.4132C59.1832 17.6979 59.4032 16.9999 59.7895 16.3209C60.1774 15.6437 60.7888 15.0462 61.6254 14.5335C62.701 13.8978 63.8112 13.5133 64.9578 13.3834C66.1061 13.2553 67.2043 13.3038 68.2487 13.5289Z" fill="white"/>
<path d="M75.6268 11.3859C76.2728 11.1885 76.9189 11.0534 77.5666 10.9841C78.2127 10.9113 78.8241 10.946 79.4026 11.088C79.9828 11.2318 80.5215 11.4864 81.0168 11.8501C81.5105 12.2156 81.9348 12.7282 82.2916 13.3881C82.6363 14.0169 82.8216 14.6664 82.8459 15.3349C82.8684 16.0052 82.761 16.6495 82.5272 17.2679C82.2916 17.8827 81.9331 18.4508 81.4533 18.9722C80.9718 19.4953 80.3916 19.9335 79.7144 20.2885C79.0389 20.6263 78.2993 20.8722 77.4974 21.0229C76.6972 21.1719 75.9264 21.1874 75.1834 21.0714C74.4386 20.9571 73.7666 20.7025 73.1673 20.3093C72.5663 19.9127 72.1333 19.3376 71.8648 18.5842C71.5756 17.8516 71.4197 17.1189 71.4006 16.388C71.3833 15.6554 71.5167 14.9712 71.8025 14.3373C72.09 13.7016 72.5455 13.1283 73.1742 12.6191C73.8012 12.1116 74.6187 11.7011 75.6268 11.3859ZM73.9155 17.4064C74.1546 18.0715 74.4923 18.6206 74.927 19.0484C75.3652 19.4745 75.8415 19.7914 76.3542 19.9975C76.8704 20.2019 77.409 20.3024 77.9685 20.3024C78.5262 20.2989 79.0493 20.195 79.5342 19.9906C80.059 19.7741 80.4227 19.4502 80.6219 19.0207C80.8194 18.5877 80.9146 18.1062 80.906 17.5796C80.8956 17.0496 80.8142 16.5023 80.6635 15.9377C80.5111 15.3748 80.3483 14.85 80.1785 14.365C79.9932 13.8627 79.7126 13.4072 79.3402 13.0002C78.9661 12.5949 78.5452 12.271 78.0793 12.0302C77.6169 11.7912 77.1319 11.6475 76.6244 11.6007C76.1204 11.5557 75.6493 11.6301 75.2111 11.8224C74.7538 12.0164 74.3832 12.3056 74.1026 12.6884C73.8203 13.0677 73.6228 13.5094 73.5137 14.0117C73.4029 14.5157 73.3786 15.0613 73.4444 15.6467C73.5085 16.2287 73.6661 16.8158 73.9155 17.4064Z" fill="white"/>
<path d="M87.8508 9.11874C87.8092 9.43397 87.7954 9.83061 87.8092 10.3104C87.8266 10.7919 87.8612 11.2924 87.9132 11.8138C87.9634 12.3368 88.0171 12.8513 88.0725 13.3587C88.1262 13.868 88.1764 14.3062 88.218 14.6751C88.2405 15.0267 88.2682 15.4614 88.3011 15.9776C88.3375 16.4954 88.3947 17.0012 88.4743 17.4948C88.5523 17.9902 88.651 18.4145 88.7722 18.7696C88.8952 19.1212 89.0494 19.3065 89.2295 19.3238C88.6475 19.3897 88.1383 19.4503 87.7053 19.504C87.2758 19.5559 86.8289 19.6373 86.3682 19.7464C86.4271 19.5767 86.46 19.2805 86.4652 18.8597C86.4738 18.4353 86.4565 17.9486 86.4167 17.3978C86.3786 16.8488 86.3301 16.2668 86.2712 15.6519C86.2106 15.0336 86.1482 14.4447 86.0841 13.8853C86.0235 13.3224 85.9577 12.8166 85.8902 12.368C85.8243 11.9212 85.7672 11.5903 85.7169 11.3773C85.4156 11.1521 85.1385 10.9616 84.8786 10.8092C84.6171 10.6533 84.3175 10.5113 83.9849 10.3866C84.7054 10.2861 85.3844 10.1199 86.0218 9.88776C86.6626 9.6574 87.2723 9.40106 87.8508 9.11874Z" fill="white"/>
<path d="M90.3488 6.64555C90.8442 6.52604 91.3015 6.3944 91.7206 6.25064C92.0895 6.13113 92.4619 5.9995 92.836 5.85574C93.2084 5.70852 93.5046 5.56823 93.7228 5.43313C93.6847 5.90424 93.6761 6.3944 93.6951 6.90189C93.7124 7.4059 93.7402 7.93764 93.7783 8.49535C93.8146 9.0496 93.8562 9.64195 93.903 10.2689C93.9532 10.8925 94.0017 11.561 94.0485 12.2712C94.0848 12.9778 94.1212 13.6689 94.1593 14.3427C94.1991 15.013 94.2459 15.6365 94.2979 16.2133C94.3516 16.7866 94.4191 17.2975 94.4988 17.7444C94.5802 18.1878 94.6876 18.5463 94.8175 18.8182C94.5126 18.8286 94.2407 18.8407 94.0069 18.8529C93.7713 18.8632 93.5514 18.8788 93.3487 18.9014C93.1495 18.9256 92.9486 18.955 92.746 18.9914C92.5468 19.0243 92.3286 19.0728 92.0947 19.1369C92.1813 18.981 92.2419 18.6104 92.2749 18.0284C92.306 17.4482 92.3182 16.7519 92.3095 15.9431C92.3043 15.1359 92.2766 14.2768 92.2264 13.3658C92.1796 12.4565 92.1242 11.5991 92.0601 10.7955C91.9943 9.99355 91.9198 9.30247 91.8384 8.72398C91.7587 8.14721 91.6842 7.78695 91.6167 7.64319C91.5076 7.46479 91.3794 7.31064 91.2356 7.18594C91.0884 7.05777 90.9499 6.95038 90.82 6.86724C90.6641 6.77198 90.5065 6.69751 90.3488 6.64555Z" fill="white"/>
<path d="M100.558 5.91594C101.096 5.87611 101.647 5.82241 102.207 5.7566C102.69 5.69771 103.22 5.61457 103.793 5.50718C104.37 5.39807 104.917 5.26124 105.435 5.09843L105.483 6.46326C105.736 6.3628 106.055 6.24503 106.44 6.10993C106.822 5.97656 107.245 5.85013 107.707 5.72888C108.173 5.60591 108.651 5.51065 109.142 5.44483C109.63 5.38075 110.106 5.35996 110.569 5.38248C111.492 5.4431 112.205 5.59552 112.71 5.83973C113.217 6.08568 113.584 6.4165 113.811 6.83045C114.239 6.55852 114.767 6.30738 115.391 6.07529C116.018 5.84147 116.683 5.67173 117.386 5.56954C118.087 5.46388 118.792 5.45003 119.499 5.52797C120.209 5.60245 120.873 5.81375 121.487 6.15843C121.92 6.42169 122.211 6.80794 122.36 7.31542C122.511 7.82463 122.584 8.39967 122.575 9.04052C122.57 9.6831 122.53 10.3794 122.457 11.1259C122.383 11.8706 122.341 12.6275 122.333 13.3983C122.327 13.9993 122.307 14.5917 122.27 15.1719C122.232 15.7504 122.222 16.2769 122.236 16.7515C122.253 17.2278 122.319 17.6123 122.43 17.9016C122.539 18.1925 122.731 18.3484 123.005 18.3727C122.329 18.3259 121.761 18.3051 121.3 18.3103C120.838 18.3138 120.464 18.3242 120.178 18.338C119.832 18.3501 119.551 18.3657 119.34 18.3796C119.418 18.1596 119.48 17.815 119.527 17.3473C119.572 16.8779 119.606 16.3549 119.631 15.7816C119.653 15.2048 119.672 14.6038 119.686 13.9802C119.703 13.3533 119.735 12.7644 119.776 12.2136C119.868 10.9821 119.835 9.96888 119.679 9.17908C119.522 8.38581 119.272 7.76401 118.931 7.31542C118.593 6.86856 118.174 6.56718 117.677 6.41477C117.178 6.26408 116.629 6.21039 116.035 6.25542C115.365 6.30218 114.881 6.51696 114.587 6.89973C114.296 7.28424 114.092 7.77094 113.977 8.36156C113.866 8.95391 113.818 9.61901 113.832 10.3569C113.844 11.0912 113.835 11.836 113.804 12.5877C113.78 13.1558 113.754 13.7672 113.728 14.4167C113.704 15.068 113.704 15.669 113.728 16.218C113.75 16.7636 113.813 17.2261 113.915 17.6036C114.015 17.983 114.173 18.1908 114.386 18.2272C113.827 18.2393 113.316 18.2445 112.855 18.241C112.398 18.2358 112.005 18.2306 111.677 18.2272C111.293 18.222 110.955 18.2272 110.666 18.241C110.744 18.1077 110.813 17.8236 110.874 17.3889C110.938 16.9507 110.991 16.4311 111.033 15.8301C111.078 15.2308 111.125 14.5882 111.171 13.904C111.216 13.2164 111.251 12.5531 111.275 11.9157C111.312 10.4798 111.194 9.34535 110.922 8.51398C110.654 7.67914 110.281 7.07293 109.807 6.69882C109.33 6.32643 108.785 6.14111 108.172 6.14457C107.557 6.14457 106.937 6.26408 106.315 6.4979C106.01 6.6278 105.787 6.88241 105.65 7.25999C105.511 7.63931 105.418 8.10176 105.373 8.64561C105.331 9.1912 105.305 9.79914 105.296 10.4677C105.291 11.138 105.274 11.8152 105.248 12.4976C105.248 12.7886 105.238 13.2199 105.22 13.7863C105.206 14.3509 105.201 14.9277 105.206 15.5183C105.21 16.1106 105.234 16.658 105.276 17.1602C105.315 17.6591 105.395 17.976 105.511 18.1094C104.666 18.0505 103.914 18.0418 103.26 18.0817C102.894 18.1198 102.548 18.1527 102.22 18.1787C102.302 17.9067 102.369 17.524 102.421 17.0286C102.475 16.5315 102.52 15.9721 102.553 15.352C102.589 14.7337 102.622 14.0876 102.65 13.4121C102.676 12.7384 102.702 12.075 102.726 11.4238C102.749 10.8938 102.768 10.3811 102.782 9.88574C102.794 9.38865 102.794 8.93659 102.782 8.53476C102.768 8.12947 102.717 7.77614 102.636 7.47476C102.553 7.17166 102.425 6.9413 102.255 6.78888C102.061 6.6278 101.869 6.49617 101.68 6.39398C101.489 6.29352 101.309 6.20519 101.14 6.13071C100.927 6.06316 100.734 5.99042 100.558 5.91594Z" fill="white"/>
<path d="M126.552 7.20073C126.422 6.93399 126.223 6.71922 125.956 6.55641C125.693 6.39533 125.397 6.23772 125.069 6.0853C125.66 6.05413 126.194 6.00736 126.67 5.94674C127.144 5.88785 127.553 5.8203 127.896 5.74583C128.296 5.66442 128.646 5.58301 128.942 5.50334C128.849 5.97965 128.76 6.46462 128.679 6.95824C128.61 7.38432 128.549 7.85543 128.499 8.37157C128.452 8.88945 128.433 9.3952 128.443 9.88883C128.899 9.71909 129.472 9.59438 130.162 9.51471C130.849 9.43677 131.544 9.40906 132.247 9.43157C132.952 9.45063 133.614 9.53376 134.228 9.68099C134.842 9.82474 135.309 10.0378 135.628 10.3184C135.876 10.5314 136.018 10.864 136.05 11.316C136.087 11.7646 136.075 12.253 136.016 12.7778C135.96 13.3009 135.879 13.8205 135.773 14.3367C135.671 14.8545 135.611 15.2806 135.593 15.6114C135.552 16.1795 135.494 16.7026 135.427 17.1772C135.361 17.6535 135.34 18.0674 135.365 18.4173C135.391 18.762 135.505 19.0408 135.704 19.2487C135.902 19.4548 136.258 19.5708 136.771 19.5951L136.792 19.699C136.232 19.6159 135.756 19.557 135.365 19.5258C134.977 19.4981 134.641 19.479 134.36 19.4704C134.083 19.46 133.839 19.46 133.633 19.4704C133.428 19.479 133.234 19.4946 133.051 19.5189C133.165 18.7932 133.29 18.0432 133.425 17.2673C133.562 16.4878 133.676 15.7327 133.764 15.0018C133.851 14.2726 133.884 13.5815 133.861 12.9303C133.842 12.2808 133.731 11.7109 133.529 11.226C133.329 10.7375 133.011 10.353 132.573 10.0759C132.138 9.80049 131.551 9.6654 130.813 9.67406C130.259 9.68791 129.81 9.7953 129.469 9.99275C129.126 10.1867 128.856 10.4725 128.658 10.8449C128.464 11.2156 128.32 11.6745 128.229 12.2236C128.135 12.7692 128.071 13.3996 128.035 14.115C127.932 14.832 127.877 15.4833 127.868 16.0687C127.858 16.6507 127.865 17.1547 127.889 17.579C127.915 17.9999 127.955 18.3376 128.007 18.5905C128.061 18.8434 128.1 18.9941 128.125 19.0408C127.856 19.0131 127.616 18.9872 127.404 18.9646C127.191 18.9456 126.983 18.9369 126.781 18.9369C126.576 18.9369 126.36 18.9404 126.129 18.9508C125.903 18.9629 125.646 18.982 125.36 19.0062C125.489 18.8624 125.592 18.5801 125.672 18.154C125.754 17.7262 125.825 17.2309 125.88 16.6714C125.934 16.1085 125.986 15.5075 126.032 14.8701C126.077 14.2293 126.129 13.6161 126.185 13.0342C126.277 12.2323 126.344 11.5446 126.386 10.9765C126.426 10.405 126.452 9.90095 126.462 9.46621C126.474 9.03321 126.486 8.64177 126.497 8.29537C126.509 7.9455 126.528 7.58004 126.552 7.20073Z" fill="white"/>
<path d="M139.826 10.103C140.309 10.2381 140.817 10.3541 141.343 10.4494C141.804 10.5429 142.322 10.6313 142.895 10.7127C143.472 10.7958 144.063 10.8478 144.669 10.8651C144.35 11.0279 144.026 11.1942 143.699 11.3639C143.375 11.5302 143.063 11.7502 142.764 12.0221C142.467 12.2905 142.192 12.6404 141.939 13.0682C141.684 13.4943 141.47 14.0572 141.295 14.7587C141.09 15.5208 141.068 16.224 141.226 16.8648C141.387 17.5022 141.665 18.0513 142.064 18.5068C142.464 18.964 142.952 19.3295 143.526 19.6014C144.102 19.8699 144.7 20.0119 145.32 20.031C145.817 20.0621 146.255 20.0119 146.629 19.8785C147.002 19.7452 147.324 19.5633 147.592 19.3312C147.859 19.1009 148.084 18.8359 148.264 18.5345C148.448 18.2349 148.592 17.9248 148.694 17.6061C148.794 17.2892 148.876 16.9791 148.936 16.6778C148.995 16.3781 149.047 16.1079 149.089 15.8672C149.111 15.6056 149.151 15.3372 149.207 15.0635C149.26 14.7881 149.311 14.5231 149.352 14.2737C149.392 14.026 149.428 13.813 149.456 13.6363C149.487 13.4579 149.492 13.335 149.47 13.2691C149.442 13.0163 149.363 12.7842 149.234 12.5763C149.104 12.365 148.969 12.1797 148.833 12.0221C148.675 11.8523 148.497 11.6826 148.299 11.5163C148.76 11.6133 149.203 11.6947 149.629 11.7588C150.007 11.8056 150.395 11.8506 150.793 11.8904C151.193 11.9286 151.536 11.9164 151.819 11.8558C151.753 12.268 151.668 12.7409 151.562 13.2761C151.455 13.8078 151.339 14.3465 151.216 14.8903C151.095 15.4359 150.979 15.9538 150.869 16.4422C150.762 16.9272 150.674 17.3273 150.606 17.6408C150.513 18.001 150.404 18.4063 150.281 18.8532C150.159 19.2966 150.078 19.7175 150.038 20.1141C149.996 20.5107 150.007 20.8502 150.073 21.1325C150.14 21.4131 150.319 21.5707 150.606 21.6036C150.268 21.5898 149.95 21.5707 149.65 21.5482C149.349 21.5292 149.08 21.5015 148.846 21.4651C148.573 21.4374 148.301 21.3993 148.029 21.3542C148.06 21.252 148.107 21.1273 148.167 20.9801C148.204 20.8364 148.247 20.6597 148.299 20.4536C148.349 20.2457 148.386 19.9738 148.41 19.643C147.795 19.9305 147.085 20.1713 146.283 20.3704C145.479 20.5679 144.671 20.6718 143.858 20.6822C143.049 20.6943 142.282 20.6008 141.558 20.3982C140.838 20.1938 140.24 19.8422 139.771 19.3382C139.22 18.706 138.917 18.0461 138.863 17.3567C138.811 16.6656 138.894 15.9901 139.112 15.3337C139.329 14.6738 139.622 14.052 139.992 13.4701C140.365 12.8846 140.702 12.3719 141.004 11.932C141.068 11.6462 141.037 11.3899 140.914 11.163C140.793 10.9326 140.656 10.7387 140.505 10.581C140.301 10.3974 140.074 10.2381 139.826 10.103Z" fill="white"/>
<path d="M158.102 13.0578C157.958 13.335 157.816 13.7056 157.68 14.1663C157.545 14.6236 157.415 15.1103 157.292 15.6212C157.167 16.1339 157.047 16.6414 156.938 17.1385C156.827 17.6338 156.732 18.0651 156.654 18.434C156.566 18.7666 156.452 19.1857 156.315 19.688C156.18 20.1868 156.069 20.6839 155.982 21.1776C155.899 21.6677 155.858 22.1007 155.858 22.4731C155.861 22.8507 155.948 23.0776 156.114 23.1521C155.541 23.0274 155.042 22.9183 154.617 22.8265C154.191 22.7381 153.741 22.6706 153.266 22.6255C153.381 22.487 153.509 22.2202 153.647 21.8219C153.789 21.4252 153.932 20.9611 154.07 20.4293C154.207 19.8941 154.349 19.3243 154.493 18.7181C154.635 18.1136 154.77 17.5369 154.895 16.9861C155.017 16.4336 155.12 15.933 155.199 15.4896C155.281 15.0479 155.333 14.7188 155.352 14.5058C155.144 14.1888 154.94 13.9152 154.742 13.6883C154.543 13.4579 154.309 13.2293 154.042 13.0024C154.752 13.1375 155.449 13.1964 156.128 13.1825C156.81 13.1704 157.468 13.1271 158.102 13.0578Z" fill="white"/>
<path d="M160.025 15.0268C160.278 15.11 160.558 15.1827 160.863 15.2416C161.111 15.297 161.4 15.3507 161.729 15.401C162.06 15.4529 162.417 15.4893 162.796 15.5118C163.127 15.472 163.421 15.4269 163.676 15.3802C163.929 15.3351 164.189 15.304 164.452 15.2901C164.719 15.2728 165.008 15.278 165.318 15.304C165.631 15.3282 166.011 15.3836 166.454 15.4702C166.901 15.5672 167.377 15.7041 167.881 15.879C168.389 16.0557 168.853 16.2964 169.274 16.5995C169.698 16.9009 170.039 17.256 170.299 17.6664C170.561 18.0735 170.668 18.5636 170.618 19.1352C170.543 19.8332 170.316 20.3805 169.939 20.7772C169.56 21.1703 169.104 21.4613 168.574 21.6501C168.047 21.8406 167.488 21.9584 166.897 22.0034C166.305 22.045 165.759 22.0571 165.262 22.0381C165.465 22.1489 165.692 22.3464 165.941 22.627C166.194 22.9041 166.464 23.2141 166.752 23.5553C167.038 23.8965 167.337 24.2585 167.653 24.643C167.966 25.0293 168.297 25.3982 168.643 25.7446C168.988 26.0945 169.352 26.3993 169.731 26.6591C170.114 26.9172 170.514 27.0973 170.93 27.1995L170.895 27.3104C170.594 27.2549 170.28 27.1943 169.953 27.1302C169.624 27.0696 169.289 26.9934 168.948 26.9016C168.605 26.8081 168.266 26.692 167.93 26.5552C167.597 26.4201 167.268 26.2538 166.946 26.0564C166.386 25.6909 165.905 25.2648 165.505 24.7816C165.103 24.3001 164.72 23.8376 164.362 23.396C164.001 22.9491 163.638 22.556 163.274 22.2182C162.909 21.8822 162.489 21.683 162.02 21.6224C161.923 21.9134 161.83 22.2095 161.743 22.5092C161.66 22.8054 161.589 23.0877 161.535 23.3544C161.483 23.6229 161.454 23.8671 161.445 24.0888C161.435 24.314 161.466 24.501 161.535 24.65C161.244 24.5426 160.938 24.4508 160.621 24.3728C160.302 24.2932 160.016 24.2326 159.768 24.1927C159.467 24.1373 159.171 24.0905 158.882 24.0542C159.098 23.6281 159.308 23.1743 159.512 22.6893C159.682 22.284 159.86 21.8198 160.046 21.2968C160.234 20.7754 160.399 20.2437 160.537 19.7033C160.643 19.2755 160.74 18.9135 160.828 18.6225C160.92 18.3333 160.984 18.0735 161.022 17.8466C161.062 17.6162 161.085 17.4084 161.085 17.223C161.085 17.0343 161.048 16.8333 160.981 16.6203C160.925 16.4506 160.847 16.267 160.752 16.073C160.659 15.8807 160.555 15.7041 160.44 15.5464C160.319 15.3715 160.181 15.1983 160.025 15.0268ZM162.865 18.3108C162.763 18.6572 162.666 19.007 162.574 19.3569C162.486 19.7033 162.41 20.0185 162.346 20.2991C162.266 20.6421 162.192 20.9538 162.124 21.2344C162.488 21.3972 162.869 21.5271 163.267 21.6224C163.603 21.7021 163.975 21.7696 164.383 21.8233C164.788 21.8753 165.207 21.8631 165.637 21.7887C166.258 21.7073 166.814 21.4076 167.299 20.8949C167.788 20.384 168.072 19.6652 168.151 18.7403C168.164 18.5013 168.122 18.2068 168.027 17.8604C167.93 17.5158 167.753 17.1797 167.5 16.8559C167.246 16.5285 166.92 16.2393 166.523 15.9898C166.125 15.737 165.642 15.5846 165.075 15.5326C164.677 15.5464 164.358 15.6348 164.119 15.7959C163.878 15.9587 163.679 16.1665 163.523 16.4194C163.366 16.6688 163.241 16.9615 163.149 17.2923C163.056 17.6249 162.961 17.9661 162.865 18.3108Z" fill="white"/>
<path d="M178.866 19.4877C179.526 19.6644 180.115 19.9051 180.633 20.2082C181.154 20.5131 181.591 20.856 181.942 21.2336C182.298 21.6129 182.559 22.0113 182.725 22.4252C182.89 22.8409 182.95 23.2479 182.905 23.6446L184.672 24.1226L184.409 24.2612L182.746 23.6723C182.722 23.7329 182.485 23.6983 182.033 23.5684C181.584 23.435 181.002 23.2497 180.287 23.0141C179.57 22.7803 178.766 22.5066 177.876 22.1966C176.984 21.8883 176.076 21.5904 175.153 21.3029C174.671 21.9541 174.353 22.5932 174.197 23.215C174.039 23.8385 173.998 24.4309 174.072 24.9886C174.15 25.5481 174.323 26.0729 174.592 26.5613C174.864 27.0497 175.184 27.4793 175.555 27.8499C175.924 28.2188 176.327 28.5167 176.767 28.7436C177.205 28.9688 177.628 29.1004 178.035 29.1385C178.529 29.1749 178.93 29.1195 179.24 28.9723C179.554 28.8233 179.812 28.6553 180.016 28.4665C180.242 28.2344 180.42 27.966 180.55 27.6629C180.706 27.8101 180.889 27.9486 181.097 28.0785C181.276 28.2015 181.48 28.328 181.707 28.4527C181.932 28.5756 182.188 28.6848 182.476 28.7783C182.078 28.9844 181.646 29.1593 181.18 29.2979C180.765 29.4174 180.275 29.5075 179.712 29.5681C179.152 29.6322 178.53 29.6062 177.848 29.4919C176.545 29.265 175.475 28.9359 174.64 28.5081C173.804 28.0785 173.161 27.5901 172.714 27.0463C172.266 26.4972 171.992 25.9083 171.897 25.2796C171.8 24.6474 171.845 24.0169 172.035 23.3882C172.247 22.5863 172.565 21.89 172.991 21.3029C173.416 20.7174 173.92 20.2533 174.502 19.9103C175.087 19.5656 175.749 19.3491 176.483 19.266C177.221 19.1846 178.016 19.2573 178.866 19.4877ZM175.375 21.1158C175.766 21.218 176.242 21.3618 176.802 21.5453C177.36 21.7307 177.907 21.916 178.444 22.0996C178.979 22.2849 179.445 22.4373 179.843 22.5569C180.24 22.6729 180.47 22.7145 180.536 22.6816C180.6 22.6365 180.657 22.4772 180.709 22.2035C180.759 21.9316 180.727 21.6337 180.612 21.3098C180.501 20.9824 180.276 20.6689 179.94 20.3676C179.602 20.0645 179.083 19.8601 178.381 19.7579C177.877 19.6904 177.436 19.7198 177.058 19.848C176.684 19.9727 176.371 20.1355 176.123 20.3329C175.832 20.5598 175.581 20.8214 175.375 21.1158Z" fill="white"/>
<path d="M82.2758 178.405C82.7036 178.419 83.1435 178.426 83.5921 178.426C83.9836 178.417 84.4131 178.398 84.8808 178.37C85.3467 178.339 85.797 178.278 86.2317 178.19L86.114 179.354C86.3253 179.295 86.592 179.228 86.9107 179.153C87.2277 179.08 87.5793 179.015 87.9638 178.959C88.3465 178.9 88.7345 178.867 89.1277 178.862C89.5243 178.853 89.9054 178.885 90.2708 178.952C90.9896 179.096 91.5387 179.3 91.9128 179.562C92.2904 179.822 92.5467 180.142 92.6818 180.525C93.0455 180.333 93.4889 180.168 94.012 180.033C94.5368 179.9 95.0858 179.823 95.654 179.804C96.2255 179.782 96.7867 179.841 97.3375 179.978C97.89 180.116 98.3923 180.369 98.8409 180.733C99.163 181.001 99.3553 181.36 99.4159 181.807C99.4748 182.255 99.4661 182.754 99.3882 183.303C99.3137 183.854 99.2046 184.443 99.0626 185.07C98.9188 185.698 98.801 186.343 98.7092 187.003C98.64 187.515 98.5586 188.019 98.4668 188.513C98.3732 189.007 98.3057 189.455 98.2658 189.857C98.2243 190.262 98.2312 190.595 98.2866 190.855C98.3455 191.116 98.4841 191.272 98.7023 191.319C98.1706 191.211 97.7203 191.135 97.3513 191.09C96.9807 191.049 96.6828 191.019 96.4576 191.007C96.1805 190.983 95.9571 190.967 95.7925 190.959C95.8739 190.773 95.9605 190.482 96.0489 190.086C96.1355 189.687 96.2221 189.244 96.3052 188.755C96.3866 188.267 96.4715 187.756 96.5546 187.224C96.636 186.689 96.7243 186.19 96.8179 185.728C97.024 184.69 97.1106 183.823 97.0742 183.13C97.0413 182.434 96.9131 181.876 96.6932 181.46C96.4715 181.041 96.1701 180.74 95.7925 180.559C95.4132 180.376 94.9854 180.274 94.5108 180.255C93.9704 180.229 93.5599 180.364 93.2845 180.663C93.0109 180.96 92.7978 181.354 92.6472 181.848C92.4947 182.338 92.3804 182.899 92.3077 183.532C92.2384 184.166 92.1501 184.803 92.0444 185.444C91.9613 185.925 91.8695 186.443 91.7742 186.996C91.6807 187.546 91.6131 188.059 91.5733 188.534C91.5317 189.008 91.5283 189.414 91.5664 189.746C91.6062 190.077 91.7119 190.269 91.8781 190.321C91.4295 190.274 91.0225 190.226 90.6588 190.176C90.2933 190.124 89.9816 190.08 89.7235 190.044C89.4187 190.002 89.1502 189.973 88.9198 189.961C88.9978 189.85 89.0861 189.609 89.1831 189.24C89.2784 188.877 89.3788 188.44 89.481 187.931C89.5867 187.423 89.6958 186.878 89.8066 186.296C89.9158 185.716 90.0179 185.153 90.1115 184.612C90.3003 183.39 90.3297 182.408 90.2015 181.668C90.0768 180.925 89.8447 180.371 89.5087 180.005C89.1762 179.636 88.764 179.422 88.2755 179.361C87.7906 179.297 87.2883 179.335 86.7721 179.472C86.5123 179.555 86.3062 179.752 86.1555 180.061C86.0066 180.365 85.8836 180.752 85.7883 181.218C85.6913 181.68 85.5995 182.198 85.5181 182.77C85.4385 183.338 85.3536 183.914 85.2618 184.495C85.2237 184.744 85.1683 185.113 85.0955 185.596C85.0211 186.078 84.9518 186.571 84.8877 187.079C84.8219 187.583 84.7803 188.05 84.763 188.478C84.7439 188.908 84.7699 189.187 84.8392 189.317C84.1776 189.178 83.5835 189.097 83.0587 189.074C82.7677 189.06 82.4888 189.05 82.2273 189.046C82.3139 188.826 82.4074 188.504 82.5044 188.083C82.6049 187.659 82.7053 187.186 82.8023 186.663C82.8976 186.142 82.9963 185.594 83.0933 185.021C83.1886 184.444 83.2838 183.876 83.3774 183.317C83.4501 182.865 83.5228 182.428 83.5921 182.007C83.6597 181.583 83.7116 181.197 83.7445 180.85C83.7757 180.506 83.774 180.199 83.7376 179.936C83.7047 179.669 83.6302 179.461 83.5159 179.312C83.3808 179.157 83.2423 179.025 83.1002 178.918C82.9617 178.808 82.8266 178.713 82.6984 178.633C82.5408 178.552 82.3988 178.474 82.2758 178.405Z" fill="white"/>
<path d="M104.706 182.113C104.626 182.382 104.557 182.735 104.498 183.173C104.438 183.608 104.389 184.063 104.353 184.538C104.32 185.014 104.287 185.485 104.256 185.951C104.228 186.419 104.204 186.821 104.187 187.157C104.154 187.472 104.112 187.867 104.062 188.341C104.015 188.813 103.987 189.275 103.979 189.727C103.968 190.181 103.989 190.576 104.041 190.912C104.091 191.249 104.193 191.44 104.346 191.487C103.847 191.459 103.414 191.435 103.05 191.417C102.685 191.404 102.3 191.407 101.9 191.431C101.973 191.289 102.042 191.028 102.108 190.648C102.176 190.271 102.236 189.831 102.288 189.332C102.338 188.83 102.382 188.296 102.42 187.732C102.46 187.169 102.498 186.63 102.531 186.117C102.562 185.607 102.586 185.144 102.6 184.732C102.612 184.321 102.61 184.018 102.593 183.824C102.385 183.566 102.183 183.35 101.99 183.173C101.796 182.998 101.569 182.83 101.311 182.667C101.919 182.681 102.506 182.633 103.071 182.522C103.637 182.413 104.183 182.276 104.706 182.113Z" fill="white"/>
<path d="M116.741 181.352C117.224 181.302 117.65 181.291 118.015 181.317C118.384 181.345 118.696 181.39 118.951 181.449C119.254 181.515 119.519 181.6 119.74 181.705C119.536 181.905 119.349 182.095 119.179 182.273C119.03 182.436 118.883 182.601 118.736 182.765C118.592 182.932 118.488 183.065 118.424 183.16C118.109 182.658 117.733 182.329 117.295 182.176C116.855 182.021 116.431 181.944 116.02 181.948C115.539 181.972 115.054 182.074 114.565 182.253C114.591 182.651 114.617 183.117 114.641 183.652C114.664 184.184 114.685 184.709 114.704 185.225C114.726 185.738 114.747 186.203 114.766 186.617C114.789 187.03 114.815 187.314 114.842 187.47C115.234 187.567 115.667 187.631 116.138 187.657C116.612 187.684 117.101 187.696 117.6 187.691C118.102 187.683 118.611 187.66 119.124 187.622C119.635 187.582 120.142 187.544 120.641 187.511C120.414 187.696 120.095 187.863 119.685 188.01C119.273 188.154 118.809 188.277 118.292 188.377C117.775 188.479 117.22 188.556 116.63 188.606C116.037 188.658 115.455 188.68 114.884 188.675C114.906 189.151 114.918 189.595 114.918 190.005C114.918 190.417 114.932 190.769 114.96 191.058C114.991 191.349 115.059 191.568 115.161 191.71C115.267 191.853 115.428 191.895 115.646 191.834C115.313 191.921 115.007 192.007 114.731 192.091C114.454 192.172 114.207 192.25 113.99 192.319C113.749 192.392 113.529 192.468 113.332 192.548C113.396 192.205 113.439 191.824 113.464 191.398C113.49 190.973 113.5 190.528 113.491 190.061C113.486 189.595 113.472 189.118 113.45 188.633C113.431 188.15 113.41 187.676 113.387 187.213C113.349 186.595 113.327 186.039 113.318 185.544C113.308 185.046 113.252 184.615 113.152 184.255C113.05 183.896 112.878 183.597 112.639 183.361C112.404 183.122 112.035 182.939 111.538 182.814C111.943 182.791 112.378 182.71 112.84 182.571C113.301 182.435 113.763 182.28 114.226 182.114C114.686 181.944 115.135 181.787 115.57 181.643C116.008 181.496 116.398 181.399 116.741 181.352Z" fill="white"/>
<path d="M125.595 182.452C126.158 182.318 126.713 182.244 127.258 182.23C127.802 182.213 128.315 182.291 128.796 182.465C129.279 182.637 129.719 182.905 130.113 183.269C130.509 183.635 130.837 184.126 131.096 184.745C131.349 185.346 131.467 185.952 131.45 186.56C131.436 187.17 131.309 187.748 131.076 188.292C130.843 188.832 130.511 189.323 130.078 189.761C129.643 190.201 129.132 190.554 128.547 190.821C127.954 191.084 127.317 191.255 126.635 191.333C125.95 191.413 125.296 191.372 124.674 191.209C124.054 191.048 123.505 190.765 123.025 190.363C122.549 189.963 122.215 189.411 122.021 188.708C121.823 188.02 121.738 187.343 121.764 186.678C121.788 186.014 121.939 185.401 122.215 184.842C122.486 184.284 122.902 183.799 123.462 183.387C124.019 182.976 124.731 182.665 125.595 182.452ZM123.822 187.786C123.992 188.41 124.246 188.933 124.584 189.352C124.925 189.768 125.306 190.09 125.727 190.315C126.151 190.537 126.597 190.67 127.064 190.71C127.534 190.748 127.982 190.693 128.408 190.544C128.86 190.383 129.181 190.114 129.371 189.74C129.564 189.368 129.671 188.94 129.69 188.458C129.712 187.975 129.674 187.473 129.579 186.955C129.486 186.434 129.382 185.947 129.267 185.493C129.137 185.013 128.924 184.577 128.63 184.184C128.339 183.792 128.003 183.468 127.625 183.214C127.251 182.961 126.851 182.796 126.427 182.722C126.006 182.644 125.604 182.675 125.221 182.812C124.823 182.961 124.496 183.196 124.238 183.519C123.983 183.842 123.792 184.229 123.669 184.676C123.548 185.124 123.498 185.616 123.517 186.151C123.54 186.688 123.642 187.234 123.822 187.786Z" fill="white"/>
<path d="M106.851 180.235C107.27 180.181 107.668 180.108 108.042 180.02C108.356 179.942 108.676 179.857 109.005 179.764C109.333 179.672 109.594 179.573 109.788 179.466C109.714 179.892 109.66 180.333 109.629 180.789C109.596 181.246 109.568 181.733 109.546 182.244C109.527 182.753 109.508 183.292 109.49 183.858C109.476 184.423 109.454 185.032 109.428 185.687C109.395 186.33 109.362 186.958 109.331 187.572C109.303 188.181 109.284 188.751 109.276 189.276C109.27 189.802 109.282 190.275 109.31 190.689C109.336 191.105 109.39 191.441 109.47 191.694C109.215 191.677 108.988 191.663 108.791 191.652C108.591 191.64 108.406 191.631 108.236 191.631C108.065 191.631 107.893 191.64 107.724 191.652C107.552 191.666 107.365 191.69 107.162 191.722C107.254 191.588 107.339 191.261 107.419 190.738C107.497 190.213 107.571 189.584 107.641 188.853C107.713 188.121 107.772 187.34 107.814 186.512C107.854 185.682 107.885 184.897 107.904 184.163C107.926 183.43 107.928 182.796 107.911 182.265C107.892 181.735 107.859 181.402 107.814 181.267C107.744 181.097 107.651 180.947 107.537 180.817C107.426 180.689 107.32 180.578 107.225 180.484C107.1 180.384 106.974 180.301 106.851 180.235Z" fill="white"/>
<path d="M132.466 182.867C132.693 182.845 132.933 182.796 133.186 182.722C133.391 182.682 133.628 182.618 133.9 182.534C134.168 182.453 134.451 182.347 134.752 182.223C134.986 182.062 135.192 181.914 135.368 181.779C135.543 181.642 135.725 181.516 135.916 181.405C136.108 181.291 136.332 181.187 136.581 181.093C136.829 180.998 137.139 180.898 137.509 180.796C137.878 180.714 138.289 180.648 138.742 180.602C139.195 180.557 139.638 180.577 140.073 180.664C140.506 180.747 140.899 180.912 141.25 181.156C141.6 181.397 141.862 181.76 142.033 182.243C142.236 182.845 142.267 183.383 142.13 183.858C141.992 184.334 141.754 184.75 141.424 185.105C141.091 185.462 140.707 185.768 140.274 186.026C139.844 186.286 139.437 186.503 139.054 186.677C139.246 186.691 139.491 186.766 139.782 186.899C140.076 187.034 140.398 187.192 140.745 187.37C141.089 187.547 141.453 187.734 141.832 187.931C142.215 188.125 142.603 188.302 142.996 188.458C143.393 188.616 143.783 188.73 144.167 188.797C144.553 188.867 144.922 188.865 145.269 188.791L145.29 188.901C145.044 188.967 144.786 189.035 144.514 189.102C144.24 189.172 143.956 189.237 143.661 189.296C143.37 189.352 143.069 189.388 142.761 189.4C142.456 189.414 142.142 189.398 141.825 189.352C141.266 189.27 140.743 189.106 140.26 188.86C139.778 188.616 139.316 188.378 138.874 188.146C138.434 187.912 138.013 187.724 137.613 187.585C137.211 187.448 136.818 187.438 136.435 187.557C136.472 187.84 136.513 188.122 136.56 188.403C136.61 188.68 136.666 188.94 136.726 189.179C136.785 189.419 136.853 189.638 136.927 189.83C137 190.02 137.09 190.161 137.198 190.252C136.934 190.277 136.668 190.318 136.401 190.377C136.132 190.433 135.892 190.49 135.68 190.543C135.434 190.618 135.197 190.689 134.967 190.758C134.975 190.33 134.963 189.877 134.932 189.4C134.913 189.004 134.875 188.555 134.821 188.056C134.769 187.554 134.695 187.05 134.599 186.546C134.52 186.149 134.459 185.815 134.419 185.541C134.381 185.266 134.334 185.025 134.281 184.821C134.222 184.615 134.156 184.433 134.087 184.28C134.019 184.13 133.919 183.976 133.789 183.823C133.683 183.704 133.559 183.584 133.415 183.463C133.273 183.34 133.127 183.234 132.978 183.151C132.822 183.045 132.651 182.95 132.466 182.867ZM135.84 184.509C135.893 184.833 135.952 185.157 136.013 185.479C136.072 185.798 136.132 186.087 136.193 186.345C136.26 186.655 136.321 186.939 136.373 187.197C136.709 187.194 137.047 187.156 137.385 187.086C137.665 187.022 137.97 186.937 138.299 186.83C138.63 186.721 138.947 186.551 139.248 186.324C139.681 186.021 139.986 185.566 140.163 184.959C140.341 184.351 140.291 183.65 140.01 182.86C139.936 182.654 139.794 182.424 139.588 182.174C139.383 181.927 139.125 181.713 138.812 181.537C138.502 181.362 138.148 181.249 137.752 181.197C137.359 181.144 136.938 181.203 136.491 181.377C136.189 181.54 135.976 181.733 135.853 181.953C135.732 182.174 135.658 182.422 135.632 182.694C135.608 182.962 135.621 183.252 135.673 183.56C135.727 183.87 135.784 184.187 135.84 184.509Z" fill="white"/>
<path d="M145.392 176.96C145.383 177.215 145.458 177.429 145.614 177.604C145.771 177.781 145.967 177.921 146.203 178.027C146.442 178.134 146.715 178.219 147.02 178.283C147.323 178.344 147.616 178.384 147.893 178.401C148.168 178.42 148.428 178.429 148.669 178.429C148.913 178.425 149.093 178.408 149.209 178.38C149.717 178.316 150.209 178.313 150.685 178.367C151.165 178.422 151.613 178.573 152.029 178.817C152.448 179.063 152.822 179.432 153.152 179.925C153.482 180.416 153.768 181.065 154.004 181.872C154.16 182.454 154.213 183.007 154.163 183.528C154.111 184.046 153.981 184.524 153.775 184.962C153.571 185.397 153.287 185.788 152.923 186.133C152.563 186.476 152.157 186.758 151.71 186.978C151.17 187.269 150.585 187.496 149.958 187.657C149.329 187.82 148.712 187.863 148.108 187.789C147.502 187.711 146.946 187.487 146.438 187.117C145.931 186.748 145.529 186.181 145.233 185.419C144.957 184.773 144.807 184.124 144.782 183.473C144.76 182.823 144.871 182.203 145.115 181.616C145.356 181.025 145.742 180.487 146.272 180.002C146.807 179.513 147.491 179.108 148.323 178.789C147.916 178.831 147.434 178.916 146.882 179.039C146.331 179.163 145.811 179.291 145.316 179.42C144.73 179.572 144.145 179.737 143.563 179.911C143.729 179.816 143.915 179.652 144.117 179.42C144.289 179.213 144.483 178.917 144.699 178.533C144.917 178.15 145.148 177.625 145.392 176.96ZM147.062 184.657C147.226 185.069 147.481 185.452 147.824 185.807C148.165 186.159 148.544 186.443 148.96 186.659C149.374 186.872 149.807 187.002 150.256 187.047C150.708 187.094 151.139 187.016 151.551 186.812C151.97 186.582 152.265 186.24 152.431 185.787C152.601 185.334 152.677 184.849 152.66 184.332C152.646 183.81 152.559 183.282 152.403 182.745C152.246 182.21 152.069 181.741 151.877 181.339C151.7 180.984 151.471 180.629 151.191 180.272C150.909 179.913 150.586 179.617 150.228 179.385C149.871 179.151 149.476 179.009 149.043 178.962C148.608 178.917 148.153 179.037 147.678 179.323C147.249 179.586 146.94 179.936 146.757 180.369C146.572 180.803 146.475 181.273 146.466 181.775C146.456 182.274 146.509 182.781 146.625 183.292C146.74 183.802 146.885 184.257 147.062 184.657Z" fill="white"/>
<path d="M117.405 58.5199L118.079 62.3737H116.829L115.916 62.1018L117.454 61.9026L117.405 58.5199Z" fill="#231F20"/>
<path d="M114.674 64.0139L118.983 63.8805L118.427 64.485L114.674 64.0139Z" fill="#231F20"/>
<path d="M102.349 74.9568L97.5511 97.0575L101.956 107.675L106.241 105.96L106.675 105.787L105.023 98.0014L102.742 97.7641L104.865 97.6083L106.675 89.0347V98.8657L107.147 103.428L103.215 108.854L102.349 114.596L102.822 133.234L108.326 133.863L108.877 122.853V134.651L112.808 134.178L113.202 123.561V133.627L116.191 134.021L116.584 126.786V133.627L119.73 134.178V124.269L119.652 134.651L124.524 134.847V125.998L125.392 134.178L134.516 132.368L127.673 110.978L123.505 111.213L122.482 109.012L122.168 107.595L126.336 106.651L128.066 110.349L133.099 103.348L135.789 96.6643L131.92 76.216L102.349 74.9568Z" fill="#EF3443" stroke="#231F20" stroke-width="2"/>
<path d="M129.561 88.6416V97.7832L125.865 106.759L127.673 110.978L128.066 110.349" stroke="#231F20"/>
<path d="M89.7968 56.8572C88.8407 55.7885 88.1116 54.6835 87.7548 54.3977C87.7548 54.3977 103.799 68.6332 104.507 70.2059C105.214 71.7786 103.012 72.2497 103.012 72.2497C103.012 72.2497 94.1078 61.6791 89.7968 56.8572Z" fill="#231F20"/>
<path fill-rule="evenodd" clip-rule="evenodd" d="M89.7968 56.8572C88.8407 55.7885 88.1116 54.6835 87.7548 54.3977C87.7548 54.3977 103.799 68.6332 104.507 70.2059C105.214 71.7786 103.012 72.2497 103.012 72.2497C103.012 72.2497 94.1078 61.6791 89.7968 56.8572Z" stroke="#231F20"/>
<path d="M100.541 79.0479C100.541 79.0479 91.1772 63.4129 89.6063 56.4103" stroke="#231F20" stroke-width="2"/>
<path d="M106.281 100.213C106.281 100.213 120.665 101.945 128.539 100.213C128.975 100.116 127.713 102.091 127.713 102.091H107.008L106.281 100.213Z" fill="#453547" stroke="#231F20"/>
<path d="M115.933 93.1431C115.933 93.1431 113.889 91.5808 113.574 93.9589C113.261 96.3369 115.933 99.8322 115.933 99.8322L118.722 98.9696L115.933 93.1431Z" fill="#453547" stroke="#231F20"/>
<path fill-rule="evenodd" clip-rule="evenodd" d="M119.414 99.5048L123.597 98.0066V98.7566L119.414 99.5048Z" stroke="#231F20" stroke-width="2"/>
<path d="M117.102 102.719H119.809L132.313 130.718C132.313 130.718 131.449 131.268 130.583 130.64C129.718 130.009 117.102 102.719 117.102 102.719Z" fill="#453547"/>
<path fill-rule="evenodd" clip-rule="evenodd" d="M117.102 102.719H119.809L132.313 130.718C132.313 130.718 131.449 131.268 130.583 130.64C129.718 130.009 117.102 102.719 117.102 102.719Z" stroke="#231F20"/>
<path d="M121.536 59.8068C121.451 62.6491 121.302 65.2835 121.302 65.2835C120.989 65.9919 117.102 69.2169 117.102 69.2169C117.102 69.2169 112.415 67.1714 112.259 65.4411C112.102 63.7108 112.235 53.2494 112.235 53.2494C112.235 53.2494 115.867 54.6419 116.997 55.3503C116.997 55.3503 120.438 53.0155 121.224 52.8579C121.65 52.7731 121.638 56.4363 121.536 59.8068ZM135.773 80.4629C134.374 69.1355 123.977 65.9139 123.977 65.9139C127.908 48.0602 117.405 43.8133 117.405 43.8133C117.405 43.8133 107.069 46.252 109.585 64.4971C112.102 82.744 109.821 66.3071 109.821 66.3071C99.9119 68.9017 98.4171 82.1153 98.4171 82.1153C107.224 78.575 117.842 92.1801 117.842 92.1801C125.392 81.8001 135.458 82.3508 135.458 82.3508C135.458 82.3508 135.507 82.2209 135.566 82.02C135.68 81.6321 135.838 80.9739 135.773 80.4629Z" fill="#231F20"/>
<path d="M116.626 57.4357L113.422 57.2019V57.9258L116.626 57.4357Z" fill="#231F20"/>
<path d="M117.603 57.4097L120.365 57.0477L120.197 57.4097L120.031 57.7734L117.603 57.4097Z" fill="#231F20"/>
<path d="M112.005 59.476L112.183 60.2156L112.796 61.0192L112.005 64.1819V59.476Z" fill="#231F20"/>
<path d="M120.715 61.2271L121.758 64.1819L122.049 59.6856L120.715 61.2271Z" fill="#231F20"/>
<path d="M113.609 65.7338L113.763 66.1807L117.019 68.0114L119.643 65.7338" fill="white"/>
<path d="M122.565 107.505L125.639 106.811L127.425 110.399L123.883 110.978L122.565 107.505Z" fill="white"/>
<path d="M116.829 64.7171H117.608L117.102 65.2748L116.829 64.7171Z" fill="#231F20"/>
</svg>
