<?xml version="1.0" encoding="UTF-8" standalone="no"?>
<!DOCTYPE svg PUBLIC "-//W3C//DTD SVG 1.1//EN"
"http://www.w3.org/Graphics/SVG/1.1/DTD/svg11.dtd">


<!-- Page 1 -->
<svg x="0" y="0" width="935" height="1210" viewBox="0 0 935 1210" version="1.1" xmlns="http://www.w3.org/2000/svg" xmlns:xlink="http://www.w3.org/1999/xlink"
style="display: block;margin-left: auto;margin-right: auto;">
<defs>
<clipPath id="c_1"><path d="M0,0H935V1210H0Z"/></clipPath>
<style type="text/css"><![CDATA[
text { white-space: pre; }
path, image { pointer-events: none; }
text::-moz-selection {
	color: transparent;
	background: rgba(0, 106, 173, 0.4);
}
text::selection {
	color: transparent;
	background: rgba(0, 106, 173, 0.4);
}

.s1{
font-size: 85.91px;
font-family: KellsSD_5;
fill: TRANSPARENT;
}
.s2{
font-size: 68.08px;
font-family: KellsSD_5;
fill: TRANSPARENT;
}
.s3{
font-size: 87.89px;
font-family: KellsSD_5;
fill: TRANSPARENT;
}
.s4{
font-size: 75.86px;
font-family: KellsSD_5;
fill: TRANSPARENT;
}
.s5{
font-size: 62.91px;
font-family: KellsSD_5;
fill: TRANSPARENT;
}

.g0{
fill: #38409A;
}
.g1{
fill: none;
stroke: #F9ED0C;
stroke-width: 9.166;
stroke-linecap: square;
stroke-linejoin: miter;
stroke-miterlimit: 2;
}
.g2{
fill: #F9ED0C;
}
.g3{
fill: none;
stroke: #231F20;
stroke-width: 6.111;
stroke-linecap: butt;
stroke-linejoin: miter;
stroke-miterlimit: 4;
}
.g4{
fill: #747578;
}
.g5{
fill: #231F20;
}
.g6{
fill: #FFFFFF;
}
.g7{
fill: #EF4C4A;
}
.g8{
fill: none;
stroke: #231F20;
stroke-width: 4.583;
stroke-linecap: butt;
stroke-linejoin: miter;
stroke-miterlimit: 4;
}
.g9{
fill: none;
stroke: #231F20;
stroke-width: 1.527;
stroke-linecap: butt;
stroke-linejoin: miter;
stroke-miterlimit: 4;
}
.ga{
fill: none;
stroke: #231F20;
stroke-width: 3.055;
stroke-linecap: butt;
stroke-linejoin: miter;
stroke-miterlimit: 4;
}
.gb{
fill: #4C3D4C;
}

]]></style>

</defs>
<path d="M0,0
L0,1210
L935,1210
L935,0 Z " 
fill="#FFFFFF" stroke="none"/>
<g clip-path="url(#c_1)">
<path d="M477.6,874.8C457.9,820.1,397.8,809.3,350,798c-39.2,-9.2,-69.8,-32,-83.5,-66.5C232,655.5,297.9,598.6,307.1,529.4c4.6,-34.2,-15.3,-60.9,-33.9,-86.9l31.7,-36.2c52.6,26.9,126.4,20.1,172.7,-15.7c46.3,35.8,120.1,42.7,172.8,15.8l22.1,35c-18.7,26,-28.9,53.9,-24.4,88c9.2,69.3,75.1,126.2,40.6,202.1c-13.7,34.6,-44.3,57.4,-83.5,66.6c-47.8,11.2,-107.8,22,-127.6,76.7Z" class="g0"/>
<path d="M477.6,874.8C457.9,820.1,397.8,809.3,350,798c-39.2,-9.2,-69.8,-32,-83.5,-66.5C232,655.5,297.9,598.6,307.1,529.4c4.6,-34.2,-15.3,-60.9,-33.9,-86.9l31.7,-36.2c52.6,26.9,126.4,20.1,172.7,-15.7c46.3,35.8,120.1,42.7,172.8,15.8l22.1,35c-18.7,26,-28.9,53.9,-24.4,88c9.2,69.3,75.1,126.2,40.6,202.1c-13.7,34.6,-44.3,57.4,-83.5,66.6c-47.8,11.2,-107.8,22,-127.6,76.7Z" class="g1"/>
<path d="M342.1,689.6V547.8L597.2,549V689.6Z" class="g2"/>
<path d="M342.1,689.6V547.8L597.2,549V689.6H342.1Z" class="g3"/>
<path d="M356.4,498.3H587.9L608.2,549H334.3Z" class="g4"/>
<path d="M356.4,498.3H587.9L608.2,549H334.3l22.1,-50.7Z" class="g3"/>
<path d="M377.7,586H359.8V559.1h17.9V586Z" class="g5"/>
<path d="M377.7,618.3H359.8V591.4h17.9v26.9Z" class="g5"/>
<path d="M377.7,651.4H359.8V624.5h17.9v26.9Z" class="g5"/>
<path d="M418.3,586H400.4V559.1h17.9V586Z" class="g5"/>
<path d="M418.3,618.3H400.4V591.4h17.9v26.9Z" class="g5"/>
<path d="M418.3,651.4H400.4V624.5h17.9v26.9Z" class="g5"/>
<path d="M574.9,651.4H557V624.5h17.9v26.9Z" class="g5"/>
<path d="M576,586H558.1V559.1H576V586Z" class="g5"/>
<path d="M576,618.3H558.1V591.4H576v26.9Z" class="g5"/>
<path d="M552.7,689.6H528.5v-40h24.2v40Z" class="g5"/>
<path d="M480.2,890.9c-51.2,0,-87.6,-5.3,-144.1,-31.8l-7,10.4c-9,-3.2,-39.2,-22.8,-39.2,-22.8l-11.6,28.5l-32.4,15.9c41.4,28.9,81.6,42.7,81.6,42.7c.1,0,-16.5,-20.1,-15.8,-19.7c54.7,22.9,104.8,34.2,168.5,34.2c63.7,0,113.9,-11.3,168.5,-34.2c.8,-.4,-15.9,19.7,-15.8,19.7c0,0,40.2,-13.8,81.6,-42.7L682.1,875.2L670.6,846.7c0,0,-30.3,19.6,-39.3,22.8l-7,-10.4c-56.4,26.5,-92.9,31.8,-144.1,31.8m-227.3,.5l29.3,-14.1l10,-25c0,0,27.6,17.8,34.4,20.5L302.2,909c0,0,13.9,16.3,13.8,16.3c-12.2,-3.8,-48.3,-22.4,-63.1,-33.9m391.6,33.9c-.2,0,13.8,-16.3,13.8,-16.3L633.9,872.8c6.8,-2.7,34.3,-20.5,34.3,-20.5l10,25l29.3,14.1c-14.8,11.5,-50.9,30.1,-63,33.9Z" class="g0"/>
<path d="M469.6,359.8c85.1,0,145.6,7.6,239.4,46.2l11.7,-15.1c14.9,4.7,65.2,33.1,65.2,33.1l19.2,-41.4l53.8,-23C790.1,317.4,723.3,297.4,723.3,297.4c-.2,0,27.5,29.2,26.3,28.7C658.8,292.8,575.5,276.4,469.6,276.4c-105.8,0,-189.1,16.4,-279.9,49.7c-1.3,.5,26.4,-28.7,26.3,-28.7c0,0,-66.8,20,-135.6,62.2l53.8,23L153.4,424c0,0,50.2,-28.4,65.2,-33.1L230.2,406C324,367.4,384.6,359.8,469.6,359.8M847.2,359l-48.6,20.6L782,415.9c0,0,-45.8,-25.8,-57.1,-29.8l40.5,-52.6c0,0,-23.1,-23.8,-22.9,-23.7c20.2,5.5,80.2,32.6,104.7,49.2M196.8,309.8c.2,-.1,-23,23.7,-23,23.7l40.6,52.6c-11.3,4,-57.1,29.8,-57.1,29.8L140.7,379.6L92,359c24.6,-16.6,84.6,-43.7,104.8,-49.2Z" class="g0"/>
<path d="M443.8,736.5l9.9,78.1v3.8c0,0,2.1,4.6,5.9,4.6c3.8,0,8.2,-.6,8.7,-1.9c.5,-1.4,-.3,-13.9,0,-24.4c.3,-10.6,1.1,-18.4,3,-26c1.9,-7.6,4.3,-15.5,3.8,-20.9c-.6,-5.4,0,-19.2,0,-19.2l-31.3,-1.9Z" class="g4"/>
<path d="M443.8,736.5l9.9,78.1v3.8c0,0,2.1,4.6,5.9,4.6c3.8,0,8.2,-.6,8.7,-1.9c.5,-1.4,-.3,-13.9,0,-24.4c.3,-10.6,1.1,-18.4,3,-26c1.9,-7.6,4.3,-15.5,3.8,-20.9c-.6,-5.4,0,-19.2,0,-19.2l-31.3,-1.9v7.8Z" class="g3"/>
<path d="M507,731.4c0,0,0,16.2,7.1,27.9c7,11.6,15.3,26.5,17.3,34.7c1.9,7.6,1.9,15.1,1.9,15.1c0,0,12.9,-.8,15,-2.4c2.1,-1.6,-14.4,-78,-14.4,-78Z" class="g4"/>
<path d="M507,731.4c0,0,0,16.2,7.1,27.9c7,11.6,15.3,26.5,17.3,34.7c1.9,7.6,1.9,15.1,1.9,15.1c0,0,12.9,-.8,15,-2.4c2.1,-1.6,-14.4,-78,-14.4,-78L507,731.4Z" class="g3"/>
<path d="M452,818.9c0,0,-9.8,11.3,-10.7,14.1c-1.2,3.9,-2.3,5.6,-2.9,8.7c-.4,2.7,2.3,10.3,8.6,7.8c6.2,-2.4,10.9,-4.8,13.9,-8.9c3,-4,4.9,-4,4.9,-4l7,-5.3l-2.9,-13.1l-4.1,2.1c0,0,-4.2,2.5,-7.6,1.9c-3.4,-.6,-7,-4.6,-7,-4.6Z" class="g5"/>
<path d="M531.4,809.9c0,0,-1.8,7.9,-.5,10.6c1.4,2.7,1.1,3.8,7.3,3.6c6.3,-.3,9.8,-2.4,13.6,0c3.8,2.4,8.4,5.6,11.1,5.6c10,.2,14,-5.2,14,-5.2l1.2,-2.3c0,0,-6.8,-4.9,-8.4,-5.2c-1.7,-.3,-13.9,-5.1,-10.9,-3.5c1,.5,-4.4,-1.8,-5.7,-4.4c-.8,-1.6,-2.9,-2.4,-2.9,-2.4Z" class="g5"/>
<path d="M471.7,447.6l24.8,.1L507,464.5v20.1l-5.9,18.3l-16,17.1l-17.7,-9.3l-7.9,-15.5l4.8,-35.9l4.2,-11.7Z" class="g6"/>
<g fill="#FFFFFF" >
<use xlink:href="#f0_25" transform="matrix(60.8,-20.1,17.6,53.4,240.1,377.3)" />
<use xlink:href="#f0_1p" transform="matrix(49.3,-11.7,10.3,43.4,288.4,361.5)" />
</g>
<text transform="matrix(1.08,-0.36,0.31,0.95,240,377)" class="s1">S</text>
<g fill="#FFFFFF" >
<use xlink:href="#f0_21" transform="matrix(50.1,-8.1,7.1,44,329.6,351.7)" />
</g>
<text transform="matrix(1.11,-0.26,0.23,0.97,288,361)" class="s2">C</text>
<g fill="#FFFFFF" >
<use xlink:href="#f0_1v" transform="matrix(50.4,-5.6,4.9,44.3,374.1,344.8)" />
</g>
<text transform="matrix(1.12,-0.18,0.16,0.99,329,351)" class="s2">O</text>
<g fill="#FFFFFF" >
<use xlink:href="#f0_1y" transform="matrix(50.6,-4,3.5,44.4,395.8,342.4)" />
</g>
<text transform="matrix(1.13,-0.13,0.11,0.99,374,344)" class="s2">I</text>
<text transform="matrix(1.13,-0.09,0.08,1,395,342)" class="s2">L</text>
<g fill="#FFFFFF" >
<use xlink:href="#f0_1z" transform="matrix(65.5,0.7,-0.6,57.5,428.1,339.1)" />
<use xlink:href="#f0_1u" transform="matrix(50.5,4.9,-4.3,44.4,510.3,340.6)" />
</g>
<text transform="matrix(1.14,0.01,-0.01,1,428,339)" class="s3">M</text>
<g fill="#FFFFFF" >
<use xlink:href="#f0_27" transform="matrix(50,8.3,-7.3,44,556.5,345.1)" />
</g>
<text transform="matrix(1.13,0.11,-0.1,1,510,340)" class="s2">H</text>
<g fill="#FFFFFF" >
<use xlink:href="#f0_1v" transform="matrix(49.5,11,-9.6,43.5,604.6,353.5)" />
</g>
<text transform="matrix(1.12,0.19,-0.16,0.99,556,345)" class="s2">U</text>
<g fill="#FFFFFF" >
<use xlink:href="#f0_24" transform="matrix(48.8,13.8,-12.1,42.9,625.7,357.8)" />
</g>
<text transform="matrix(1.11,0.25,-0.22,0.98,604,353)" class="s2">I</text>
<g fill="#FFFFFF" >
<use xlink:href="#f0_1r" transform="matrix(47.6,17.6,-15.4,41.8,668,369.6)" />
</g>
<text transform="matrix(1.1,0.31,-0.27,0.96,625,357)" class="s2">R</text>
<text transform="matrix(1.07,0.39,-0.35,0.94,667,369)" class="s2">E</text>
<g fill="#FFFFFF" >
<use xlink:href="#f0_1z" transform="matrix(51.6,7.2,-6.9,49.2,360.1,927.3)" />
<use xlink:href="#f0_1v" transform="matrix(43.2,2.6,-2.5,41.1,428.2,935.7)" />
</g>
<text transform="matrix(1.04,0.14,-0.14,0.99,360,927)" class="s4">M</text>
<g fill="#FFFFFF" >
<use xlink:href="#f0_1y" transform="matrix(43.2,1.2,-1.1,41.2,448,936.9)" />
</g>
<text transform="matrix(1.05,0.06,-0.06,1,428,935)" class="s5">I</text>
<g fill="#FFFFFF" >
<use xlink:href="#f0_1s" transform="matrix(43.2,-0.8,0.7,41.2,464.8,937.6)" />
</g>
<text transform="matrix(1.05,0.03,-0.03,1,448,936)" class="s5">L</text>
<g fill="#FFFFFF" >
<use xlink:href="#f0_21" transform="matrix(43.1,-3.7,3.6,41,501.6,937)" />
</g>
<text transform="matrix(1.05,-0.02,0.02,1,464,937)" class="s5">F</text>
<g fill="#FFFFFF" >
<use xlink:href="#f0_24" transform="matrix(42.6,-7.2,6.9,40.6,543.3,933.3)" />
</g>
<text transform="matrix(1.05,-0.09,0.09,1,501,936)" class="s5">O</text>
<g fill="#FFFFFF" >
<use xlink:href="#f0_1q" transform="matrix(41.9,-10.8,10.2,39.9,583.3,926.4)" />
</g>
<text transform="matrix(1.04,-0.18,0.17,0.99,543,933)" class="s5">R</text>
<text transform="matrix(1.02,-0.26,0.25,0.97,583,926)" class="s5">D</text>
<path d="M484.9,478l2.4,13.3H483l-3.2,-1l5.3,-.6Z" class="g5"/>
<path d="M475.5,496.9l14.9,-.4l-1.9,2.1Z" class="g5"/>
<path d="M433.1,534.6l-16.6,76.2l15.2,36.6l14.8,-5.9l1.5,-.6L442.3,614l-7.9,-.8l7.3,-.5L448,583.1V617l1.6,15.7L436,651.4l-2.9,19.8l1.6,64.2l19,2.2l1.9,-37.9v40.6l13.5,-1.6l1.4,-36.6v34.7l10.3,1.3l1.3,-24.9v23.6l10.9,1.9V704.5l-.3,35.8l16.8,.7V710.5l3,28.2l31.4,-6.2L520.3,658.8l-14.3,.8L502.4,652l-1,-4.9l14.3,-3.3l6,12.8L539,632.5l9.3,-23.1L535,539Z" class="g7"/>
<path d="M433.1,534.6l-16.6,76.2l15.2,36.6l14.8,-5.9l1.5,-.6L442.3,614l-7.9,-.8l7.3,-.5L448,583.1V617l1.6,15.7L436,651.4l-2.9,19.8l1.6,64.2l19,2.2l1.9,-37.9v40.6l13.5,-1.6l1.4,-36.6v34.7l10.3,1.3l1.3,-24.9v23.6l10.9,1.9V704.5l-.3,35.8l16.8,.7V710.5l3,28.2l31.4,-6.2L520.3,658.8l-14.3,.8L502.4,652l-1,-4.9l14.3,-3.3l6,12.8L539,632.5l9.3,-23.1L535,539L433.1,534.6Z" class="g3"/>
<path d="M526.8,581.8v31.5l-12.7,30.9l6.2,14.6l1.4,-2.2" class="g8"/>
<path d="M389.8,472.3c-3.3,-3.7,-5.8,-7.5,-7,-8.5c0,0,55.3,49,57.7,54.5c2.4,5.4,-5.1,7,-5.1,7c0,0,-30.7,-36.4,-45.6,-53Z" class="g5"/>
<path d="M389.8,472.3c-3.3,-3.7,-5.8,-7.5,-7,-8.5c0,0,55.3,49,57.7,54.5c2.4,5.4,-5.1,7,-5.1,7c0,0,-30.7,-36.4,-45.6,-53Z" class="g9"/>
<path d="M426.8,548.7c0,0,-32.2,-53.8,-37.6,-78" class="ga"/>
<path d="M446.6,621.7c0,0,49.6,5.9,76.7,0c1.5,-.4,-2.8,6.4,-2.8,6.4H449.1Z" class="gb"/>
<path d="M446.6,621.7c0,0,49.6,5.9,76.7,0c1.5,-.4,-2.8,6.4,-2.8,6.4H449.1l-2.5,-6.4Z" class="g3"/>
<path d="M479.9,597.3c0,0,-7.1,-5.4,-8.2,2.8c-1,8.2,8.2,20.2,8.2,20.2l9.6,-2.9Z" class="gb"/>
<path d="M479.9,597.3c0,0,-7.1,-5.4,-8.2,2.8c-1,8.2,8.2,20.2,8.2,20.2l9.6,-2.9l-9.6,-20.1Z" class="g3"/>
<path d="M491.9,619.2l14.4,-5.1v2.5l-14.4,2.6Z" class="ga"/>
<path d="M483.9,630.3h9.3l43.1,96.5c0,0,-3,1.9,-6,-.3c-2.9,-2.2,-46.4,-96.2,-46.4,-96.2Z" class="gb"/>
<path d="M483.9,630.3h9.3l43.1,96.5c0,0,-3,1.9,-6,-.3c-2.9,-2.2,-46.4,-96.2,-46.4,-96.2Z" class="g3"/>
<path d="M499.2,482.4c-.3,9.8,-.8,18.9,-.8,18.9c-1.1,2.4,-14.5,13.6,-14.5,13.6c0,0,-16.1,-7.1,-16.7,-13c-.5,-6,-.1,-42.1,-.1,-42.1c0,0,12.5,4.8,16.4,7.3c0,0,11.9,-8.1,14.6,-8.6c1.5,-.3,1.4,12.3,1.1,23.9m49,71.2c-4.8,-39,-40.6,-50.1,-40.6,-50.1C521.1,442,484.9,427.3,484.9,427.3c0,0,-35.6,8.4,-26.9,71.3c8.7,62.9,.8,6.2,.8,6.2c-34.1,9,-39.3,54.5,-39.3,54.5c30.4,-12.2,66.9,34.7,66.9,34.7c26.1,-35.8,60.7,-33.9,60.7,-33.9c0,0,.2,-.4,.4,-1.1c.4,-1.4,1,-3.6,.7,-5.4Z" class="g5"/>
<path d="M482.3,474.3l-11.1,-.8V476Z" class="g5"/>
<path d="M485.6,474.2l9.5,-1.3l-.5,1.3l-.6,1.2Z" class="g5"/>
<path d="M466.3,481.3l.6,2.5l2.2,2.8l-2.8,10.9Z" class="g5"/>
<path d="M496.4,487.3l3.5,10.2l1,-15.5Z" class="g5"/>
<path d="M471.9,502.9l.5,1.5l11.2,6.3l9.1,-7.8Z" class="g6"/>
<path d="M502.7,646.8l10.6,-2.4l6.2,12.4l-12.2,2Z" class="g6"/>
<path d="M483,499.4h2.6l-1.7,1.9Z" class="g5"/>

</g>
<defs>
<path d="M515,556c0,1,0,2,-1,3c1,-2,1,-3,1,-3ZM284,-8C265,-8,195,-7,141,7C141,7,76,24,40,62C40,62,3,99,5,154c0,0,2,0,6,0c9,0,29,1,50,6c0,0,29,8,54,19c0,0,27,10,55,26c0,0,-3,-38,25,-79c0,0,28,-40,75,-68c0,0,46,-27,106,-33c0,0,3,0,9,0c20,0,65,3,112,28c0,0,41,23,48,67c0,0,8,43,-16,89c0,0,-23,46,-78,84c0,0,-54,39,-138,52c0,0,-36,6,-87,23c0,0,-50,17,-95,45c0,0,-45,29,-74,68c0,0,-29,40,-22,90c0,0,2,22,12,48c0,0,10,26,35,51c0,0,25,25,69,47c0,0,45,22,116,38c0,0,62,12,125,12c6,0,12,0,18,0c0,0,68,-3,120,-18c0,0,52,-16,84,-37c0,0,32,-21,37,-41c0,0,-40,-14,-64,-23c0,0,-23,-9,-36,-17c0,0,-13,-8,-19,-14c0,0,-5,-6,-9,-12c0,0,-10,-9,-10,-29c0,0,0,-8,1,-17c-1,10,-7,46,-27,80c0,0,-24,41,-61,67c0,0,-36,26,-83,32c0,0,-5,1,-14,1c-17,0,-49,-3,-81,-19c0,0,-37,-19,-52,-57c0,0,-16,-38,-3,-81c0,0,13,-43,56,-84c0,0,43,-41,122,-66c0,0,45,-13,100,-30c0,0,55,-17,103,-40c0,0,49,-23,84,-54c0,0,34,-31,39,-76c0,0,1,-30,-11,-62c0,0,-12,-32,-41,-63c0,0,-28,-31,-71,-55C574,52,530,28,469,14C469,14,374,-7,290,-8c0,0,-2,0,-6,0Z"
id="f0_25"
transform="scale(0.001,-0.001)"/>

<path d="M359,0C330,0,283,2,239,13c0,0,-71,18,-127,60c0,0,-57,42,-81,113C31,186,8,251,2,332c0,0,-4,81,16,159c0,0,22,79,76,145c0,0,54,65,149,100c0,0,86,31,182,31c18,0,36,-1,55,-4c0,0,116,-16,214,-69c0,0,-36,-36,-60,-66c0,0,-24,-31,-41,-54c0,0,-19,-27,-31,-50c0,0,0,54,-21,96c0,0,-22,43,-58,71c0,0,-37,27,-88,36c0,0,-17,3,-42,3c-19,0,-43,-1,-69,-7c0,0,-38,-10,-71,-45c0,0,-33,-36,-53,-89c0,0,-19,-53,-23,-118c0,0,-4,-65,14,-133c0,0,17,-61,45,-119c0,0,29,-57,67,-99c0,0,38,-42,87,-63c0,0,31,-14,73,-14c11,0,22,1,34,3c0,0,33,6,54,22c0,0,21,16,34,39c0,0,13,23,18,50c0,0,5,28,8,57c0,0,22,-6,46,-11c0,0,22,-3,49,-4c0,0,5,-1,12,-1c11,0,29,1,49,4c0,0,-20,-58,-72,-102c0,0,-52,-43,-120,-69C535,31,466,6,388,1C388,1,377,0,359,0Z"
id="f0_1p"
transform="scale(0.001,-0.001)"/>

<path d="M440,46c18,0,40,2,61,7c0,0,57,16,83,61c0,0,27,45,35,105c0,0,7,61,1,127c0,0,-6,67,-15,125c0,0,-11,61,-41,113c0,0,-31,53,-74,89c0,0,-42,36,-92,50c0,0,-23,7,-52,7c-14,0,-30,-1,-45,-6c0,0,-49,-14,-83,-52c0,0,-35,-38,-54,-93c0,0,-19,-55,-22,-122c0,0,-3,-67,12,-139c0,0,14,-80,51,-136c0,0,36,-57,85,-90c0,0,48,-32,103,-42c0,0,20,-4,47,-4ZM349,1C330,1,261,2,199,25c0,0,-72,27,-126,83c0,0,-53,55,-68,146c0,0,-16,88,-6,171c0,0,9,84,48,151c0,0,39,67,110,113c0,0,71,46,176,63c0,0,50,7,105,7c10,0,20,0,30,0c0,0,65,-4,121,-31c0,0,56,-27,99,-77c0,0,44,-51,68,-132c0,0,25,-77,16,-154c0,0,-8,-76,-42,-142c0,0,-33,-66,-90,-116c0,0,-56,-50,-130,-78C510,29,437,3,354,1c0,0,-1,0,-5,0Z"
id="f0_21"
transform="scale(0.001,-0.001)"/>

<path d="M78,0V0c0,0,8,18,13,66c0,0,5,49,8,112c0,0,2,63,3,134c0,0,0,71,0,136c0,0,0,65,-1,117c0,0,-2,52,-5,77c0,0,-27,30,-52,51c0,0,-24,20,-55,39c0,0,72,3,139,21c0,0,68,19,129,43c0,0,-8,-35,-12,-90c0,0,-4,-55,-4,-116c0,0,-1,-60,-1,-119c0,0,0,-58,0,-101c0,0,-2,-40,-4,-100c0,0,-2,-59,0,-116c0,0,2,-58,11,-100c0,0,8,-42,26,-46C273,8,214,8,170,7C170,7,125,6,78,0Z"
id="f0_1v"
transform="scale(0.001,-0.001)"/>

<path d="M38,0c0,0,11,17,19,83c0,0,7,67,13,159c0,0,6,93,9,197c0,0,2,105,2,197c0,0,0,93,-4,160c0,0,-4,67,-10,84c0,0,-9,21,-23,37c0,0,-13,16,-26,27c0,0,-15,12,-29,20c0,0,49,9,94,21c0,0,38,11,77,24c0,0,39,13,62,27c0,0,-8,-54,-10,-112c0,0,-3,-58,-3,-122c0,0,-1,-64,-1,-136c0,0,0,-72,-2,-154c0,0,-1,-81,-3,-158c0,0,-1,-77,-1,-144c0,0,1,-66,6,-118c0,0,4,-52,15,-84c0,0,-31,1,-54,2c0,0,-11,0,-24,0c-6,0,-14,0,-20,0C125,10,104,9,83,7C83,7,63,5,38,0Z"
id="f0_1y"
transform="scale(0.001,-0.001)"/>

<path d="M978,0c0,0,6,20,9,62c0,0,3,42,5,93c0,0,1,51,2,107c0,0,1,56,4,105c0,0,6,110,-7,180c0,0,-13,70,-41,110c0,0,-27,40,-67,53c0,0,-29,9,-66,9c-7,0,-14,0,-21,-1c0,0,-53,-5,-76,-39c0,0,-23,-34,-32,-87c0,0,-8,-53,-7,-118c0,0,2,-66,0,-133c0,0,-1,-51,-3,-109c0,0,-1,-58,1,-107c0,0,2,-49,11,-82c0,0,8,-34,25,-37C715,6,671,5,634,5H571c0,0,-30,0,-53,-2c0,0,6,12,11,51c0,0,4,39,7,93c0,0,3,53,6,114c0,0,3,61,5,118c0,0,1,128,-21,202c0,0,-22,74,-60,107c0,0,-37,32,-85,32c-1,0,-2,0,-2,0c0,0,-49,0,-98,-22c0,0,-24,-12,-35,-46c0,0,-11,-33,-14,-82c0,0,-3,-49,-3,-109c0,0,0,-59,-1,-120c0,0,0,-26,-1,-77c0,0,-1,-50,0,-103c0,0,1,-53,4,-97c0,0,4,-44,13,-56c0,0,-29,2,-65,2C162,10,143,9,125,8C125,8,96,5,70,2c0,0,6,24,10,68c0,0,4,45,6,100c0,0,3,55,4,115c0,0,2,60,3,118c0,0,2,48,2,92c0,0,1,44,0,80c0,0,-2,36,-9,63c0,0,-7,27,-20,40c0,0,-16,14,-31,23c0,0,-15,9,-29,16c0,0,-16,6,-29,12c0,0,41,4,86,10c0,0,38,7,84,16c0,0,46,10,87,26l3,-81c0,0,20,9,50,21c0,0,31,12,67,24c0,0,37,11,76,17c0,0,31,5,63,5c5,0,9,0,13,0c0,0,73,-5,114,-26c0,0,40,-21,58,-58c0,0,34,24,84,46c0,0,49,21,105,31c0,0,33,6,73,6c13,0,26,-1,39,-2c0,0,57,-6,106,-37c0,0,35,-23,47,-68c0,0,12,-45,12,-102c0,0,0,-57,-5,-124c0,0,-5,-66,-5,-135c0,0,0,-54,-3,-105c0,0,-2,-52,0,-94c0,0,1,-42,10,-68c0,0,9,-26,31,-28c0,0,-42,2,-78,2c-4,0,-8,0,-12,0c0,0,-37,0,-60,-2c0,0,-27,-1,-44,-3Z"
id="f0_1z"
transform="scale(0.001,-0.001)"/>

<path d="M41,-22c0,0,12,18,16,67c0,0,4,50,4,115c0,0,0,65,-1,138c0,0,-2,73,-2,140c0,0,2,94,0,159c0,0,-1,66,-5,116c0,0,-3,49,-5,89c0,0,-2,40,-4,84c0,0,-15,29,-43,44c0,0,-27,16,-63,29c0,0,60,11,106,23c0,0,48,13,81,25c0,0,40,14,69,26c0,0,-5,-55,-8,-113c0,0,-3,-49,-3,-109c0,0,0,-59,6,-116c0,0,45,25,114,41c0,0,68,17,139,23c0,0,19,1,47,1c25,0,57,-1,88,-6c0,0,63,-10,98,-39c0,0,28,-21,35,-73c0,0,8,-51,7,-111c0,0,0,-60,-6,-121c0,0,-5,-60,-4,-98c0,0,2,-66,0,-121c0,0,-3,-55,3,-95c0,0,7,-39,29,-61c0,0,19,-18,64,-18c3,0,6,0,10,0l1,-8c0,0,-44,3,-82,3c-5,0,-10,0,-14,-1c0,0,-40,0,-68,-3C650,8,622,6,601,3c0,0,-20,-3,-39,-7c0,0,5,83,11,174c0,0,6,90,8,175c0,0,1,84,-7,158c0,0,-9,75,-34,128c0,0,-25,53,-72,80c0,0,-34,20,-90,20c-10,0,-20,-1,-31,-2c0,0,-55,-8,-88,-34c0,0,-33,-26,-49,-71c0,0,-16,-45,-20,-108c0,0,-4,-64,-1,-146c0,0,-3,-83,2,-150c0,0,5,-67,11,-115c0,0,7,-48,15,-77c0,0,8,-28,11,-32H179c0,0,-22,0,-42,-2c0,0,-21,-2,-44,-6c0,0,-23,-4,-52,-10Z"
id="f0_1u"
transform="scale(0.001,-0.001)"/>

<path d="M278,5C263,5,246,6,230,8c0,0,-76,9,-131,58c0,0,-65,61,-82,138c0,0,-17,77,-6,156c0,0,10,78,38,152c0,0,27,73,50,128c0,0,2,34,-14,57c0,0,-16,24,-35,39c0,0,-22,17,-50,28c0,0,50,-6,105,-8c0,0,21,0,53,0c16,0,34,0,54,0c0,0,58,2,120,11c0,0,-29,-24,-59,-50c0,0,-30,-25,-55,-61c0,0,-25,-36,-44,-89c0,0,-18,-54,-24,-136c0,0,-8,-90,19,-160c0,0,27,-69,74,-114c0,0,47,-44,109,-64c0,0,41,-13,90,-13c11,0,23,1,35,3c0,0,50,6,85,28c0,0,35,22,58,53c0,0,23,32,36,69c0,0,13,37,19,76c0,0,5,38,6,73c0,0,0,35,0,63c0,0,-1,30,0,62c0,0,0,32,0,61c0,0,0,29,0,50c0,0,0,21,-3,28c0,0,-7,28,-23,49c0,0,-16,22,-33,37c0,0,-19,17,-41,32c0,0,30,-2,65,-2c8,0,17,0,26,0c0,0,38,2,79,5c0,0,40,3,68,15c0,0,0,-47,-2,-110c0,0,-1,-62,-4,-127c0,0,-3,-64,-6,-121c0,0,-3,-57,-5,-94c0,0,-3,-43,-8,-95c0,0,-4,-53,-2,-99c0,0,2,-46,14,-76c0,0,11,-29,38,-29c1,0,2,0,2,0c0,0,-33,-5,-64,-8c0,0,-30,-3,-55,-5c0,0,-27,-1,-55,-1c0,0,2,12,5,30c0,0,1,17,3,42c0,0,1,24,-2,62c0,0,-56,-44,-133,-81C545,70,468,32,387,15C387,15,337,5,278,5Z"
id="f0_27"
transform="scale(0.001,-0.001)"/>

<path d="M275,252c5,0,9,0,14,0c0,0,35,2,76,8c0,0,41,7,81,29c0,0,58,29,92,101c0,0,33,71,15,175c0,0,-5,28,-24,63c0,0,-19,35,-52,63c0,0,-34,29,-80,44c0,0,-23,8,-57,8c-14,0,-29,-2,-45,-5c0,0,-38,-14,-57,-39c0,0,-20,-25,-28,-58c0,0,-8,-33,-8,-73c0,0,0,-39,0,-81c0,0,0,-41,0,-82c0,0,1,-41,3,-75c0,0,1,-40,3,-73c0,0,31,-5,67,-5ZM749,-18c-12,0,-39,0,-66,4c0,0,-37,4,-73,16c0,0,-65,22,-117,63c0,0,-53,40,-100,79c0,0,-48,38,-93,64c0,0,-34,20,-74,20c-6,0,-12,-1,-18,-2c0,0,-2,-35,-2,-71c0,0,0,-36,3,-67c0,0,2,-31,7,-57c0,0,6,-25,16,-38c0,0,-20,2,-45,2c-7,0,-13,0,-20,0c0,0,-33,-2,-59,-5c0,0,-30,-3,-59,-7c0,0,9,52,15,112c0,0,6,50,10,114c0,0,4,63,2,127c0,0,-1,51,0,86c0,0,0,35,-2,62c0,0,-2,26,-8,47c0,0,-5,21,-17,42c0,0,-11,17,-25,35c0,0,-15,18,-29,32c0,0,-17,17,-37,31c0,0,7,-1,18,-1c10,0,24,1,39,2c0,0,26,2,60,6c0,0,33,5,72,14c0,0,30,15,54,28c0,0,24,13,49,23c0,0,25,10,56,17c0,0,32,7,77,12c0,0,18,1,44,1c16,0,36,-1,57,-2c0,0,54,-4,103,-24c0,0,50,-20,87,-57c0,0,36,-38,47,-102c0,0,12,-79,-14,-135c0,0,-26,-56,-72,-93c0,0,-47,-38,-103,-61c0,0,-57,-22,-106,-36c0,0,23,-6,55,-29c0,0,32,-23,70,-52c0,0,37,-29,78,-62c0,0,42,-33,85,-60c0,0,44,-28,88,-45c0,0,41,-15,82,-15c1,0,3,0,5,0V-8c0,0,-30,-3,-64,-6c0,0,-34,-3,-70,-4c0,0,-2,0,-6,0Z"
id="f0_24"
transform="scale(0.001,-0.001)"/>

<path d="M168,555c0,0,41,4,101,6c0,0,59,3,117,4c0,0,57,2,99,5c0,0,42,3,47,9c0,0,4,8,0,39c0,0,-5,31,-27,62c0,0,-22,30,-65,50c0,0,-21,9,-57,9c-16,0,-35,-2,-56,-7c0,0,-50,-12,-82,-41c0,0,-31,-29,-48,-60c0,0,-20,-37,-29,-76ZM352,0C332,0,313,1,295,4c0,0,-95,13,-157,54c0,0,-62,41,-93,105c0,0,-31,65,-36,140c0,0,-7,94,12,174c0,0,20,81,64,141c0,0,43,60,111,99c0,0,67,38,155,47c0,0,22,2,51,2c23,0,52,-1,78,-7c0,0,61,-12,107,-39c0,0,47,-26,78,-65c0,0,30,-38,39,-82l124,12L814,568L695,567c0,0,0,-8,-47,-12c0,0,-48,-3,-124,-7c0,0,-76,-3,-172,-5c0,0,-95,-2,-193,-8c0,0,-23,-89,-16,-162c0,0,7,-74,33,-131c0,0,27,-57,70,-99c0,0,43,-42,91,-67c0,0,48,-26,98,-32c0,0,14,-2,33,-2c16,0,37,1,56,7c0,0,49,15,73,43c0,0,25,29,37,58c0,0,14,33,15,72c0,0,20,-10,45,-16c0,0,21,-6,47,-10c0,0,19,-4,44,-4c4,0,8,0,13,1c0,0,-31,-39,-71,-72c0,0,-35,-29,-86,-58C641,63,590,34,521,18C521,18,435,0,352,0Z"
id="f0_1r"
transform="scale(0.001,-0.001)"/>

<path d="M326,0V0q2,0,2,0c0,0,-1,0,-2,0ZM142,-56c0,0,9,43,13,96c0,0,4,53,4,112c0,0,0,59,-2,120c0,0,-1,61,-3,119c0,0,-3,78,-3,141c0,0,0,62,-11,108c0,0,-12,46,-40,77c0,0,-28,30,-88,47c0,0,49,1,105,18c0,0,56,17,111,37c0,0,56,20,109,37c0,0,53,18,94,22c0,0,31,4,64,4c13,0,26,-1,38,-2c0,0,45,-5,75,-12c0,0,37,-9,63,-23c0,0,-25,-25,-46,-47c0,0,-18,-20,-36,-41c0,0,-18,-21,-25,-33c0,0,-37,64,-90,85c0,0,-52,21,-101,21c0,0,-58,-2,-118,-23c0,0,3,-51,5,-118c0,0,1,-67,3,-132c0,0,1,-65,3,-117c0,0,1,-52,4,-72c0,0,48,-14,104,-18c0,0,57,-5,117,-5c0,0,61,0,122,4c0,0,62,4,122,7c0,0,-28,-23,-77,-41c0,0,-50,-17,-113,-29c0,0,-62,-11,-133,-16c0,0,-55,-4,-114,-4c-9,0,-17,0,-26,0c0,0,1,-60,1,-112c0,0,-1,-52,2,-88c0,0,3,-37,15,-55c0,0,9,-12,26,-12c3,0,7,1,10,1c-8,-2,-42,-11,-71,-20c0,0,-33,-10,-59,-17c0,0,-29,-9,-54,-19Z"
id="f0_1s"
transform="scale(0.001,-0.001)"/>

<path d="M434,30c12,0,24,1,37,4c0,0,56,15,89,65c0,0,33,49,47,113c0,0,13,65,11,135c0,0,-2,70,-13,125c0,0,-9,49,-31,102c0,0,-22,52,-58,92c0,0,-35,40,-84,59c0,0,-21,8,-54,8c-17,0,-37,-2,-59,-9c0,0,-58,-18,-92,-66c0,0,-34,-47,-51,-108c0,0,-16,-61,-17,-127c0,0,-2,-65,6,-120c0,0,8,-55,37,-109c0,0,29,-53,71,-93c0,0,42,-40,93,-60c0,0,30,-11,68,-11ZM330,-1c0,0,-78,0,-146,28c0,0,-68,28,-116,89c0,0,-48,61,-60,164c0,0,-12,87,4,167c0,0,17,80,63,144c0,0,46,64,122,107c0,0,76,43,183,57c0,0,-48,7,-116,9c0,0,-68,1,-130,1c0,0,-73,0,-145,-3c0,0,22,6,52,29c0,0,26,20,63,60c0,0,37,40,85,113c0,0,-9,-31,4,-56c0,0,13,-26,38,-47c0,0,24,-21,58,-38c0,0,33,-16,65,-28c0,0,33,-11,61,-18c0,0,28,-7,42,-9c0,0,61,-7,115,-29c0,0,54,-21,96,-64c0,0,41,-44,65,-114c0,0,23,-71,26,-176c0,0,2,-76,-20,-138c0,0,-21,-62,-58,-109c0,0,-38,-46,-90,-77C591,61,539,31,480,17C480,17,408,-1,330,-1Z"
id="f0_1q"
transform="scale(0.001,-0.001)"/>


</defs>

<!-- Any embedded fonts defined here -->
<style type="text/css" ><![CDATA[

@font-face {
	font-family: KellsSD_5;
	src: url("fonts/KellsSD_5.woff") format("woff");
}

]]></style>

</svg>
